<?xml version="1.0" standalone="no"?>
<!DOCTYPE svg PUBLIC "-//W3C//DTD SVG 20010904//EN"
 "http://www.w3.org/TR/2001/REC-SVG-20010904/DTD/svg10.dtd">
<svg version="1.0" xmlns="http://www.w3.org/2000/svg"
 width="1623.000000pt" height="731.000000pt" viewBox="0 0 1623.000000 731.000000"
 preserveAspectRatio="xMidYMid meet">

<g transform="translate(0.000000,731.000000) scale(0.100000,-0.100000)"
fill="#000000" stroke="none">
<path d="M1395 7150 c-119 -4 -227 -12 -250 -19 -22 -6 -65 -13 -95 -15 -51
-3 -102 -18 -251 -75 -31 -12 -71 -35 -88 -51 -17 -17 -37 -30 -44 -30 -7 0
-23 -13 -35 -30 -13 -16 -27 -30 -33 -30 -16 0 -88 -82 -89 -101 0 -9 -9 -24
-20 -34 -22 -20 -76 -130 -95 -195 -19 -64 -37 -182 -35 -227 1 -21 1 -42 0
-48 -16 -74 4 -388 26 -422 7 -12 17 -60 20 -108 4 -47 11 -85 17 -85 5 0 7
-10 3 -22 -7 -29 24 -258 36 -258 4 0 8 -17 8 -38 0 -21 5 -43 11 -49 6 -6 15
-29 20 -52 10 -46 68 -174 81 -179 4 -2 8 -9 8 -15 0 -12 40 -77 77 -126 41
-54 140 -154 166 -168 15 -8 36 -22 46 -32 21 -21 127 -72 206 -99 141 -47
223 -61 413 -70 l154 -7 3 -55 c2 -30 9 -149 15 -265 7 -119 18 -230 26 -257
10 -34 17 -146 24 -395 12 -441 20 -605 31 -619 5 -6 11 -152 15 -325 3 -173
10 -384 16 -469 5 -85 9 -204 8 -265 -2 -147 -2 -147 128 -153 126 -6 150 0
164 38 11 34 28 31 28 -5 0 -33 21 -37 132 -23 110 13 125 24 113 82 -3 17 -8
46 -12 64 -3 18 -14 37 -25 43 -15 8 -18 17 -13 37 16 68 19 99 21 275 2 180
1 190 -19 210 -30 30 -34 92 -7 107 18 10 20 20 20 118 0 59 -5 136 -11 172
-6 36 -14 166 -17 290 l-7 226 -37 44 c-35 40 -38 48 -38 105 0 61 0 62 33 72
20 6 31 15 28 24 -2 8 -3 23 -3 34 5 68 -1 302 -8 315 -4 8 -10 70 -12 138 -4
123 -10 141 -44 146 -12 2 -23 18 -33 48 -18 60 -9 93 29 107 l30 10 -4 213
c-3 117 -9 229 -15 248 -5 19 -15 154 -21 300 -19 434 -36 674 -48 697 -7 12
-12 39 -12 61 0 35 -22 73 -35 61 -16 -17 -55 -83 -55 -94 0 -11 -6 -12 -30
-4 -17 7 -30 18 -30 28 0 9 -4 22 -10 29 -7 9 -7 9 2 2 22 -19 41 -12 34 13
-4 18 1 27 25 41 21 13 29 24 27 39 -3 21 -9 22 -117 25 -71 2 -118 -1 -126
-8 -8 -7 -97 -13 -232 -17 -255 -7 -254 -6 -242 -86 4 -28 13 -124 20 -211 10
-121 17 -164 29 -176 13 -13 36 -15 120 -13 58 1 112 0 120 -3 12 -3 15 -17
14 -62 -7 -164 -5 -191 9 -213 19 -31 24 -204 6 -215 -7 -4 -73 -6 -147 -5
-114 2 -142 6 -176 23 -22 11 -46 27 -54 34 -7 8 -19 14 -26 14 -20 0 -51 40
-87 114 -18 37 -39 70 -46 73 -9 3 -13 24 -13 62 0 31 -5 62 -11 68 -6 6 -12
37 -13 68 -1 34 -7 60 -15 64 -7 5 -9 11 -4 14 12 8 -10 216 -24 225 -7 5 -8
24 -2 62 7 43 5 59 -7 77 -8 13 -12 29 -7 36 9 15 4 89 -7 102 -23 27 11 269
44 319 9 14 16 34 16 44 0 23 19 42 42 42 9 0 22 8 27 19 13 23 94 52 181 63
98 14 334 24 345 16 5 -5 36 -8 70 -8 33 0 75 -4 92 -9 20 -6 35 -6 38 0 10
15 22 10 28 -11 4 -16 10 -18 29 -11 18 6 24 17 26 50 2 24 -4 55 -12 73 -19
36 -21 79 -5 95 8 8 9 36 4 88 -6 63 -10 78 -29 91 -13 8 -31 12 -40 8 -10 -4
-16 -1 -16 9 0 8 13 17 30 21 38 7 39 32 4 63 -34 29 -103 50 -193 58 -40 3
-78 7 -85 9 -6 1 -105 -1 -221 -4z m-135 -219 c0 -10 -4 -31 -9 -47 -5 -16
-12 -46 -16 -67 -5 -31 -9 -36 -20 -27 -9 8 -10 19 -4 38 5 15 11 48 14 75 4
31 11 47 21 47 8 0 14 -8 14 -19z m-140 -12 c0 -11 -4 -17 -10 -14 -5 3 -10
13 -10 21 0 8 5 14 10 14 6 0 10 -9 10 -21z m583 14 c-7 -2 -13 -20 -13 -39 0
-25 -4 -34 -17 -35 -10 0 -26 -2 -35 -4 -12 -2 -18 3 -18 17 0 16 5 19 24 14
30 -7 41 7 26 34 -10 18 -8 20 17 19 15 0 22 -3 16 -6z m-413 -178 c0 -19 -11
-19 -36 0 -18 14 -18 14 9 15 17 0 27 -5 27 -15z m-453 -325 c3 -11 9 -20 14
-20 9 0 6 -39 -9 -140 -6 -41 -16 -64 -40 -90 -27 -29 -32 -42 -32 -83 0 -48
0 -48 -22 -33 -12 9 -30 16 -39 16 -13 0 -16 6 -12 23 3 12 10 27 15 34 6 7 8
36 6 65 -2 41 0 53 12 54 8 0 23 2 32 2 9 1 25 18 34 37 15 33 15 37 -5 80
-24 52 -26 61 -8 68 27 12 49 6 54 -13z m806 -421 c-8 -8 -16 -8 -30 0 -16 9
-14 10 12 11 21 0 26 -3 18 -11z m202 -176 c5 -17 0 -29 -19 -46 l-26 -24 23
-21 c13 -12 29 -22 35 -22 7 0 12 -4 12 -10 0 -19 -31 -10 -54 15 -34 36 -40
76 -15 94 10 7 19 23 19 34 0 25 15 13 25 -20z m-1089 -404 c11 -19 -13 -34
-31 -19 -13 11 -13 15 -3 21 18 12 26 11 34 -2z m1230 -326 c-11 -11 -17 4 -9
23 7 18 8 18 11 1 2 -10 1 -21 -2 -24z m-528 -196 c-9 -18 -10 -18 -23 0 -8
10 -15 28 -15 40 l0 21 24 -21 c19 -17 22 -25 14 -40z m-5 -104 c-7 -2 -21 -2
-30 0 -10 3 -4 5 12 5 17 0 24 -2 18 -5z m617 -208 c0 -19 -11 -19 -36 0 -18
14 -18 14 9 15 17 0 27 -5 27 -15z m100 -51 c0 -8 -4 -12 -10 -9 -5 3 -10 10
-10 16 0 5 5 9 10 9 6 0 10 -7 10 -16z m35 -604 c3 -5 -1 -10 -10 -10 -9 0
-13 5 -10 10 3 6 8 10 10 10 2 0 7 -4 10 -10z m-177 -42 c2 -15 9 -32 17 -38
10 -9 17 -4 31 19 20 34 34 40 34 15 0 -12 6 -15 25 -10 29 7 29 8 10 -37 -8
-20 -15 -50 -15 -67 0 -23 -5 -30 -19 -30 -24 0 -33 11 -81 104 -31 61 -36 77
-22 74 10 -2 18 -14 20 -30z m200 -186 c3 -16 -1 -20 -12 -16 -19 7 -22 48 -3
42 6 -3 13 -14 15 -26z m-304 -440 c-9 -75 -18 -82 -24 -17 -5 56 3 80 22 69
4 -3 5 -26 2 -52z m26 -259 c0 -79 -1 -83 -19 -74 -15 9 -47 74 -64 131 -5 20
53 50 71 37 8 -6 12 -38 12 -94z m15 -213 c3 -5 -1 -10 -9 -10 -8 0 -18 5 -21
10 -3 6 1 10 9 10 8 0 18 -4 21 -10z m-90 -47 c19 -13 18 -14 -15 -11 -24 2
-36 9 -38 20 -4 20 17 16 53 -9z m173 -48 c9 -20 9 -25 -1 -25 -17 0 -37 20
-37 37 0 22 26 14 38 -12z m192 -211 c0 -8 -4 -14 -10 -14 -5 0 -10 9 -10 21
0 11 5 17 10 14 6 -3 10 -13 10 -21z m-40 -138 c0 -3 -4 -8 -10 -11 -5 -3 -10
-1 -10 4 0 6 5 11 10 11 6 0 10 -2 10 -4z m35 -484 c-8 -55 -7 -54 -29 -46 -9
4 -16 17 -16 34 0 15 -7 33 -15 40 -8 7 -15 16 -15 21 0 12 43 16 64 6 15 -7
17 -16 11 -55z"/>
<path d="M4420 7140 c0 -11 2 -20 4 -20 2 0 6 9 9 20 3 11 1 20 -4 20 -5 0 -9
-9 -9 -20z"/>
<path d="M2656 7133 c-118 -4 -142 -13 -125 -44 7 -15 6 -19 -5 -19 -8 0 -23
-12 -34 -27 -18 -26 -19 -44 -17 -207 2 -160 4 -181 20 -192 18 -13 18 -14 0
-33 -12 -15 -16 -28 -11 -48 4 -15 9 -68 11 -118 2 -49 8 -164 14 -255 6 -91
14 -223 18 -293 3 -70 9 -130 13 -132 4 -3 3 -26 -2 -52 -12 -60 -11 -206 3
-348 5 -60 12 -243 13 -405 l4 -295 271 -2 c177 -1 273 1 277 8 3 6 6 61 6
122 0 62 4 117 8 122 5 6 5 159 1 340 -5 182 -7 332 -5 334 2 2 13 -8 25 -23
17 -22 27 -26 50 -21 34 8 38 -7 7 -27 l-21 -14 46 -72 c26 -40 47 -77 47 -82
0 -4 10 -21 23 -37 12 -15 30 -45 40 -65 9 -21 21 -38 26 -38 5 0 13 -10 16
-22 4 -13 20 -40 36 -60 16 -20 29 -44 29 -52 0 -9 7 -16 16 -16 10 0 14 -5
10 -15 -3 -8 -1 -25 3 -38 21 -50 24 -63 22 -87 -1 -14 6 -37 17 -50 10 -14
25 -40 33 -57 8 -18 17 -33 21 -33 12 0 9 -66 -4 -95 -10 -22 -9 -28 2 -35 8
-5 12 -10 10 -12 -29 -19 -54 -28 -74 -28 -27 0 -44 -16 -24 -22 7 -3 11 -20
10 -46 -4 -54 18 -65 56 -29 20 19 34 24 55 20 23 -5 27 -10 27 -39 0 -32 1
-33 25 -24 18 7 25 6 25 -3 0 -6 3 -22 6 -35 6 -21 4 -22 -21 -16 -23 6 -26 4
-23 -12 2 -11 11 -18 21 -18 10 1 17 -5 17 -17 0 -24 28 -24 57 0 12 10 34 40
47 66 24 44 24 47 6 42 -11 -3 -20 -1 -20 4 0 5 -9 9 -20 9 -10 0 -23 6 -27
14 -4 7 -14 15 -22 18 -8 2 -16 14 -17 25 -3 20 18 36 50 38 11 0 34 95 28
113 -2 7 9 11 27 12 17 0 45 0 61 0 20 1 30 6 30 16 0 8 -4 13 -9 9 -6 -3 -15
4 -21 15 -13 24 -27 25 -52 3 -22 -19 -26 -16 -34 25 -6 29 -4 32 16 32 13 0
32 -8 42 -17 16 -14 23 -15 38 -5 25 15 31 15 28 0 -2 -6 8 -17 21 -24 22 -11
40 -31 41 -44 0 -3 -12 -6 -27 -7 -15 0 -32 -7 -37 -15 -6 -8 -19 -12 -28 -10
-11 2 -18 -3 -18 -13 0 -8 -11 -20 -25 -25 -14 -5 -25 -14 -25 -20 0 -6 -4 -9
-9 -5 -13 7 -21 -8 -13 -22 5 -9 27 -2 72 20 55 27 74 31 123 29 41 -3 57 -8
57 -18 0 -8 -6 -14 -14 -14 -8 0 -20 -13 -27 -30 l-14 -29 -25 24 c-32 31 -70
25 -70 -12 0 -17 -7 -27 -20 -30 -11 -3 -23 -16 -26 -30 -7 -25 5 -47 13 -25
3 7 18 27 34 45 16 17 29 35 29 40 0 5 13 -1 29 -12 16 -12 38 -21 48 -21 29
0 53 32 53 68 0 25 4 32 20 32 13 0 24 -10 30 -25 5 -14 15 -25 22 -25 7 0 24
-12 37 -26 20 -21 32 -25 63 -22 40 4 52 -8 42 -39 -4 -12 4 -8 20 10 14 15
26 35 26 44 0 14 2 14 14 -3 21 -28 29 -13 21 40 -6 35 -11 46 -24 44 -22 -4
-41 -23 -41 -42 0 -18 -6 -22 -47 -31 -26 -5 -33 -3 -33 9 0 9 -4 16 -10 16
-5 0 -10 -5 -10 -10 0 -6 -18 9 -39 31 -35 38 -38 45 -28 67 9 20 8 26 -8 38
-21 15 -8 18 32 8 18 -5 21 -11 16 -34 -5 -26 -1 -30 42 -49 65 -29 80 -28 60
3 -9 13 -25 26 -35 29 -20 5 -28 27 -10 27 6 0 10 11 10 24 0 21 -5 24 -27 23
-37 -3 -41 24 -6 41 48 22 74 9 52 -26 -10 -15 -6 -23 22 -52 41 -41 55 -44
80 -19 23 23 24 33 4 49 -13 10 -15 9 -15 -9 0 -14 -6 -21 -20 -21 -11 0 -20
7 -20 15 0 9 -10 20 -22 25 -13 5 -17 9 -10 9 7 1 10 6 7 11 -9 14 29 12 43
-2 10 -9 16 -8 29 5 16 16 14 18 -34 39 -34 14 -49 26 -46 35 7 17 -5 16 -39
-1 -33 -17 -33 -18 -12 34 16 40 16 42 -5 70 -11 16 -21 36 -21 45 0 9 -13 28
-30 42 -16 13 -30 33 -30 44 0 11 -11 24 -25 31 -28 13 -38 62 -10 52 28 -11
15 14 -13 27 -29 13 -72 79 -72 112 0 9 -4 17 -9 17 -10 0 -45 50 -38 56 6 6
47 -32 47 -45 0 -6 4 -11 10 -11 5 0 16 -15 25 -34 10 -21 25 -36 38 -38 12
-2 23 -12 26 -23 2 -11 8 -23 13 -26 7 -4 6 -14 -1 -27 -9 -18 -7 -28 16 -61
33 -47 43 -51 43 -15 0 21 4 25 20 21 25 -6 55 16 47 36 -3 8 -18 21 -34 29
-34 16 -54 65 -33 78 8 6 20 11 25 14 6 2 5 11 -2 25 -26 43 -4 55 42 25 23
-15 25 -15 32 2 4 10 2 19 -5 22 -7 2 -12 8 -12 14 0 6 6 5 15 -2 23 -19 27
-7 11 25 -14 27 -62 55 -93 55 -12 0 -14 -8 -9 -37 l6 -38 -17 37 c-16 35 -39
55 -51 44 -2 -3 3 -17 13 -32 15 -24 16 -32 4 -85 -12 -54 -29 -80 -29 -44 0
8 -4 15 -10 15 -5 0 -11 10 -11 23 -1 16 -2 18 -6 5 -2 -10 -9 -18 -14 -18 -6
0 -7 9 -4 20 4 14 2 20 -8 20 -7 0 -25 12 -39 28 -34 36 -57 55 -90 69 -16 7
-28 20 -28 29 0 10 -7 25 -16 35 -26 28 -11 52 27 44 17 -4 39 -8 48 -10 10
-1 16 -12 17 -31 2 -58 11 -69 57 -68 58 2 59 2 45 18 -7 7 -18 12 -24 9 -7
-2 -15 0 -19 6 -3 6 -15 11 -27 11 -17 0 -19 4 -13 28 16 57 13 64 -39 79 -40
12 -50 12 -57 1 -7 -10 -9 -10 -9 0 0 25 -21 11 -26 -18 -8 -39 -19 -38 -40 5
-9 20 -20 38 -25 41 -5 3 0 21 11 42 13 24 16 40 10 46 -6 6 -10 28 -10 50 0
38 0 39 -20 21 -13 -12 -17 -25 -14 -45 8 -38 -11 -46 -32 -14 -11 16 -14 28
-7 32 6 4 14 18 18 31 6 19 4 23 -8 18 -20 -8 -27 14 -10 31 15 15 18 42 4 42
-5 0 -11 14 -13 31 -4 22 0 32 11 36 26 10 41 25 35 35 -4 6 -10 5 -15 -3 -5
-9 -7 -2 -5 18 3 18 7 37 11 43 3 6 -4 14 -17 19 -27 10 -38 -1 -38 -39 l0
-24 -21 21 c-26 25 -20 72 8 69 13 -1 17 5 15 23 -3 27 25 64 41 54 6 -3 26
-6 46 -5 l36 0 -34 -15 c-28 -12 -36 -12 -42 -1 -7 10 -9 9 -9 -3 0 -15 29
-49 43 -49 3 0 27 14 52 31 25 17 48 29 50 27 3 -2 0 -20 -5 -39 -6 -18 -10
-42 -10 -53 0 -18 1 -18 19 -2 22 20 32 5 24 -37 -6 -30 10 -37 25 -11 10 18
60 10 69 -12 7 -20 53 -18 53 2 0 8 -4 12 -10 9 -5 -3 -10 1 -10 11 0 12 -6
15 -25 12 -21 -4 -28 2 -49 41 -27 53 -21 81 19 81 15 0 26 7 30 21 9 27 30
19 30 -12 0 -22 6 -25 34 -20 18 3 18 65 0 96 -11 16 -19 42 -19 58 0 15 -4
27 -10 27 -5 0 -10 -7 -10 -15 0 -27 -28 -72 -49 -78 -16 -4 -21 2 -26 32 -4
22 -1 54 7 77 10 27 11 50 6 73 -6 23 -5 37 4 48 7 9 11 26 10 39 -2 16 2 24
11 24 8 0 17 7 21 15 3 8 11 12 19 9 8 -3 29 9 46 26 18 16 39 30 47 30 7 0
16 11 20 24 8 32 36 38 51 11 7 -11 12 -14 13 -7 0 8 -9 27 -20 42 -11 16 -19
35 -18 42 2 8 -4 12 -14 10 -12 -2 -18 4 -18 15 0 14 -2 15 -9 4 -5 -7 -11 -9
-14 -4 -4 6 0 19 8 29 8 11 14 14 15 7 0 -7 5 -13 11 -13 7 0 9 10 7 25 -3 14
-2 25 1 25 10 -1 36 -25 47 -45 20 -36 29 -25 28 36 0 57 1 60 22 55 13 -4 25
-1 28 7 3 6 3 -2 0 -19 -4 -27 0 -35 30 -57 19 -15 42 -27 50 -27 27 0 17 34
-16 55 -45 28 -45 43 -4 51 20 3 36 10 36 15 0 5 11 14 25 19 14 5 25 14 25
19 0 6 16 13 35 17 36 6 44 21 23 42 -16 16 -28 15 -28 -3 0 -19 -33 -36 -75
-38 -19 -2 -40 -8 -47 -15 -17 -17 -35 -15 -42 5 -6 14 -10 11 -26 -15 -21
-34 -40 -42 -40 -16 0 12 -6 15 -24 10 -19 -5 -29 1 -50 28 -34 45 -34 64 -1
42 21 -14 26 -14 31 -3 3 8 4 18 3 23 -5 27 3 32 40 27 34 -5 40 -2 60 25 23
33 28 68 9 73 -7 2 -149 2 -316 -1 -272 -4 -304 -7 -313 -22 -5 -9 -15 -23
-22 -30 -7 -7 -35 -47 -62 -88 -66 -99 -73 -111 -87 -140 -6 -14 -22 -36 -34
-50 -13 -14 -36 -51 -53 -83 -17 -32 -36 -64 -43 -72 -31 -35 -38 -45 -38 -59
0 -8 -5 -18 -10 -21 -6 -4 -8 -26 -4 -56 6 -44 4 -52 -19 -73 -17 -15 -33 -22
-49 -19 -28 5 -46 -12 -82 -81 -14 -27 -31 -55 -37 -62 -19 -23 -27 -6 -18 33
7 34 -5 316 -30 676 -11 162 -11 162 -174 163 -67 0 -171 -1 -231 -3z m1374
-73 c0 -5 -5 -10 -11 -10 -5 0 -7 -4 -4 -10 3 -5 1 -10 -4 -10 -13 0 -13 3 -5
24 7 18 24 22 24 6z m80 -30 c0 -11 -2 -20 -5 -20 -2 0 -9 9 -15 20 -9 16 -8
20 5 20 8 0 15 -9 15 -20z m-37 -327 c-7 -3 -13 -11 -13 -19 0 -8 -4 -14 -10
-14 -15 0 -12 11 7 32 9 10 19 15 22 12 3 -4 0 -9 -6 -11z m37 -41 c0 -28 -56
-82 -84 -82 -13 0 -26 -6 -29 -12 -8 -23 -20 1 -13 27 5 19 13 25 35 25 28 0
53 20 64 53 8 22 27 13 27 -11z m-200 -201 c-11 -21 -30 -37 -30 -25 0 8 30
44 37 44 2 0 -1 -9 -7 -19z m-36 -40 c3 -5 -1 -11 -9 -14 -9 -4 -12 -1 -8 9 6
16 10 17 17 5z m41 -77 c-3 -21 -10 -32 -17 -28 -6 4 -8 -3 -5 -22 4 -16 3
-47 -1 -69 -6 -32 -12 -41 -31 -43 -22 -4 -23 -1 -18 32 4 26 2 38 -10 45 -14
7 -14 11 2 39 10 17 27 33 37 35 12 4 18 14 18 34 0 16 3 33 7 37 13 13 25
-26 18 -60z m-566 8 c5 -18 6 -34 1 -37 -12 -7 -17 3 -25 50 -9 48 10 38 24
-13z m-79 12 c0 -8 -4 -12 -10 -9 -5 3 -10 13 -10 21 0 8 5 12 10 9 6 -3 10
-13 10 -21z m531 -87 c-8 -8 -11 -7 -11 4 0 20 13 34 18 19 3 -7 -1 -17 -7
-23z m-483 -108 c-16 -10 -33 5 -23 21 5 8 11 8 21 -1 12 -10 12 -14 2 -20z
m292 -169 c0 -5 -4 -10 -10 -10 -5 0 -10 5 -10 10 0 6 5 10 10 10 6 0 10 -4
10 -10z m-242 -135 c2 -30 4 -29 -39 -8 l-34 18 35 6 c19 4 35 7 35 8 0 0 2
-10 3 -24z m282 -5 c0 -5 -5 -10 -11 -10 -5 0 -7 5 -4 10 3 6 8 10 11 10 2 0
4 -4 4 -10z m20 -35 c0 -8 -4 -15 -9 -15 -5 0 -11 7 -15 15 -3 9 0 15 9 15 8
0 15 -7 15 -15z m-650 -5 c0 -5 -11 -10 -25 -10 -14 0 -25 5 -25 10 0 6 11 10
25 10 14 0 25 -4 25 -10z m380 -4 c0 -11 -19 -15 -25 -6 -3 5 1 10 9 10 9 0
16 -2 16 -4z m-40 -93 c0 -9 -5 -31 -12 -48 -17 -49 7 -125 43 -132 23 -4 26
-10 27 -49 0 -58 -23 -53 -42 9 -4 12 -16 17 -45 17 -22 0 -43 -4 -46 -10 -7
-12 -55 -13 -55 -2 0 5 11 14 25 20 14 6 25 16 25 22 0 5 7 10 15 10 9 0 15 9
15 25 0 14 -6 25 -13 25 -9 0 -13 12 -13 33 0 17 -4 41 -8 52 -7 18 -6 18 12
-2 11 -13 22 -23 25 -23 12 0 17 34 6 41 -16 10 -2 29 22 29 11 0 19 -7 19
-17z m163 -586 c-8 -29 -23 -8 -23 33 0 63 13 82 21 30 4 -25 5 -53 2 -63z
m327 12 c0 -5 -4 -9 -10 -9 -5 0 -10 7 -10 16 0 8 5 12 10 9 6 -3 10 -10 10
-16z m-220 -19 c0 -5 -5 -10 -11 -10 -5 0 -7 5 -4 10 3 6 8 10 11 10 2 0 4 -4
4 -10z m-569 -43 c-13 -13 -15 1 -4 30 7 17 8 17 11 -1 2 -10 -1 -23 -7 -29z
m604 -8 c11 -16 1 -19 -13 -3 -7 8 -8 14 -3 14 5 0 13 -5 16 -11z m-152 -14
c4 -8 2 -17 -3 -20 -6 -4 -10 3 -10 14 0 25 6 27 13 6z m365 -12 c-4 -21 -19
-26 -38 -13 -13 9 -13 11 0 20 23 15 42 12 38 -7z m-248 -5 c0 -7 3 -23 6 -35
5 -17 2 -23 -10 -23 -10 0 -16 9 -16 25 0 14 -4 25 -10 25 -5 0 -10 5 -10 10
0 6 9 10 20 10 11 0 20 -6 20 -12z m-35 -28 c3 -5 1 -10 -4 -10 -6 0 -11 5
-11 10 0 6 2 10 4 10 3 0 8 -4 11 -10z m-595 -11 c0 -6 -22 -33 -50 -60 -27
-26 -52 -60 -55 -76 -11 -46 -14 -53 -25 -53 -17 0 -13 117 5 124 8 3 15 12
15 19 0 25 36 48 64 41 16 -4 26 -2 26 5 0 6 5 11 10 11 6 0 10 -5 10 -11z
m781 -17 c-5 -10 -17 -24 -25 -31 -14 -12 -14 -10 0 18 9 17 20 31 25 31 6 0
6 -7 0 -18z m258 -28 c-16 -19 -53 -14 -57 7 -2 12 3 15 21 12 14 -3 28 1 33
8 6 10 9 10 12 1 2 -7 -2 -19 -9 -28z m-464 -36 c8 -48 -1 -79 -22 -71 -12 5
-14 16 -10 50 2 24 1 46 -4 49 -5 3 -9 12 -9 20 0 31 39 -10 45 -48z m105 -5
c8 -21 15 -51 15 -68 1 -16 5 -37 9 -46 4 -8 2 -27 -3 -42 -9 -22 -7 -29 11
-41 20 -14 20 -16 3 -32 -16 -17 -16 -18 5 -34 l21 -16 -26 -12 c-14 -7 -31
-12 -38 -12 -7 0 -19 -9 -27 -20 -21 -29 -80 -24 -80 6 0 20 37 17 44 -3 6
-14 9 -15 15 -4 6 9 2 20 -11 33 -28 28 -19 54 17 50 24 -3 28 -1 18 9 -18 18
-16 30 2 23 17 -7 21 11 5 21 -16 10 -2 25 16 18 25 -9 13 30 -12 41 -18 8
-21 16 -16 48 4 34 2 40 -17 45 -11 3 -21 13 -20 22 0 10 2 11 6 4 8 -22 21
-14 28 17 9 40 18 38 35 -7z m440 -118 c-10 -12 -16 -13 -26 -4 -20 16 -18 19
12 19 22 0 25 -2 14 -15z m-375 -356 c4 -6 -1 -16 -11 -24 -23 -16 -25 -15
-17 13 6 24 18 28 28 11z"/>
<path d="M4472 7121 c4 -13 18 -16 19 -4 0 4 -5 9 -11 12 -7 2 -11 -2 -8 -8z"/>
<path d="M4518 6998 c-10 -10 -15 -24 -12 -33 8 -20 19 -19 40 3 10 9 22 18
28 18 27 4 56 17 56 26 0 16 -93 5 -112 -14z"/>
<path d="M4410 6864 c0 -8 5 -12 10 -9 6 3 10 10 10 16 0 5 -4 9 -10 9 -5 0
-10 -7 -10 -16z"/>
<path d="M4260 6695 c0 -8 2 -15 4 -15 2 0 11 -3 20 -6 23 -9 20 9 -4 24 -17
10 -20 10 -20 -3z"/>
<path d="M4210 6568 c0 -8 10 -14 25 -13 33 0 33 19 0 23 -16 2 -25 -2 -25
-10z"/>
<path d="M3995 6520 c-3 -5 -1 -11 5 -15 18 -11 10 -50 -16 -74 -25 -24 -29
-51 -7 -58 6 -2 14 10 18 28 4 19 15 33 26 36 20 6 35 43 26 67 -6 16 -45 28
-52 16z"/>
<path d="M4110 6439 c0 -5 5 -7 10 -4 6 3 10 8 10 11 0 2 -4 4 -10 4 -5 0 -10
-5 -10 -11z"/>
<path d="M14507 6424 c-1 -1 -294 -4 -650 -8 -736 -7 -690 -1 -783 -92 -40
-39 -52 -59 -62 -102 -7 -30 -12 -63 -12 -74 0 -19 -1 -20 -17 -6 -19 17 -45
17 -77 3 -13 -6 -21 -3 -28 9 -6 10 -25 24 -44 32 -44 18 -194 19 -237 0 -38
-16 -79 -58 -77 -77 5 -35 1 -40 -22 -28 -35 19 -416 12 -447 -8 -26 -17 -41
-6 -41 32 0 54 -54 82 -92 48 -16 -14 -18 -14 -18 -1 0 9 -6 20 -12 26 -17 13
-58 -3 -58 -23 0 -8 -4 -15 -10 -15 -5 0 -10 9 -10 19 0 17 -18 31 -39 31 -4
0 -14 -12 -21 -27 -12 -28 -12 -28 -21 -5 -11 30 -69 32 -69 2 0 -11 -6 -20
-14 -20 -7 0 -16 9 -19 20 -6 24 -52 28 -65 4 -8 -14 -10 -14 -21 0 -17 20
-50 21 -57 1 -4 -8 -12 -15 -19 -15 -7 0 -15 7 -19 15 -6 17 -47 20 -63 4 -8
-8 -16 -7 -31 2 -15 10 -27 10 -44 2 -14 -6 -32 -7 -47 -1 -16 6 -31 4 -45 -5
-17 -11 -26 -11 -46 -1 -23 12 -27 11 -47 -14 -12 -15 -22 -22 -23 -15 0 14
-28 43 -40 43 -5 0 -18 -9 -28 -21 -17 -17 -20 -18 -25 -5 -8 19 -57 21 -76 4
-11 -10 -14 -10 -18 0 -7 17 -60 15 -71 -4 -8 -14 -10 -14 -21 0 -19 22 -50
20 -59 -5 l-8 -20 -18 20 c-23 25 -39 26 -56 6 -8 -10 -17 -12 -24 -6 -29 23
-57 23 -76 -1 -15 -18 -19 -19 -20 -7 0 23 -45 30 -64 10 -12 -12 -19 -12 -28
-3 -15 15 -54 16 -63 2 -4 -6 -11 -5 -20 4 -19 19 -65 8 -74 -17 -8 -20 -8
-20 -13 1 -8 30 -58 31 -65 2 -3 -11 -9 -20 -13 -20 -4 0 -10 9 -13 20 -4 14
-14 20 -35 20 -17 0 -34 -5 -37 -10 -4 -6 -12 -7 -18 -3 -7 4 -43 8 -81 9 -60
1 -69 -1 -74 -18 -4 -18 -5 -18 -19 2 -19 27 -63 27 -70 0 -7 -25 -10 -25 -34
3 l-19 22 -21 -25 c-19 -22 -22 -23 -30 -7 -11 20 -49 23 -67 5 -9 -9 -16 -8
-30 6 -15 13 -25 14 -46 7 -14 -6 -26 -16 -26 -23 -1 -9 -5 -7 -13 3 -10 13
-27 17 -77 15 -84 -3 -104 -15 -121 -71 -13 -43 -15 -45 -39 -38 -25 8 -877 7
-1630 -2 -217 -3 -811 -7 -1320 -10 -509 -3 -944 -8 -967 -11 -24 -3 -45 -9
-48 -15 -13 -21 -25 -7 -25 29 0 55 -31 81 -91 78 -25 -1 -58 -9 -72 -19 -15
-9 -42 -17 -62 -17 -20 0 -35 -5 -35 -12 0 -7 -15 3 -34 21 l-35 34 -121 -5
c-115 -4 -122 -5 -148 -31 l-27 -28 2 -141 c2 -78 8 -156 14 -175 15 -46 59
-63 164 -63 90 0 140 13 155 40 12 22 102 20 125 -4 11 -11 35 -16 74 -16 70
0 88 16 93 79 3 43 4 44 21 27 16 -17 64 -17 910 -11 895 6 2992 26 3057 29
27 1 35 -3 38 -19 4 -23 38 -62 65 -77 15 -7 24 -5 42 12 l22 21 6 -20 c8 -32
53 -28 61 4 7 29 26 24 26 -6 0 -31 48 -26 60 7 11 28 30 24 30 -7 0 -30 47
-26 62 6 15 32 28 32 28 -1 0 -22 4 -25 28 -22 19 2 28 9 30 26 4 29 30 29 34
0 4 -30 33 -34 54 -9 18 20 18 20 31 1 18 -26 31 -25 60 2 19 18 23 19 23 5 0
-17 34 -32 50 -22 5 3 10 13 10 21 0 21 26 17 41 -7 16 -24 44 -18 52 12 6 24
25 25 34 2 11 -30 27 -33 51 -10 22 20 24 21 33 4 14 -25 59 -23 59 3 0 11 4
20 10 20 5 0 14 -9 20 -20 14 -27 60 -27 60 -1 0 29 18 35 22 9 2 -18 9 -23
33 -23 24 0 31 5 33 23 4 27 27 24 27 -4 0 -30 59 -27 63 4 4 24 22 31 22 8 0
-20 25 -37 43 -30 8 3 18 16 21 30 8 32 19 30 33 -6 13 -34 36 -39 56 -10 13
19 13 19 30 0 23 -28 44 -25 61 7 l14 28 13 -28 c16 -36 56 -38 65 -2 7 29 24
34 24 6 0 -32 29 -33 57 -3 l25 27 15 -22 c19 -29 37 -29 55 -1 l15 22 12 -22
c16 -29 57 -30 67 0 l6 21 17 -22 c23 -30 63 -25 72 9 l6 25 11 -27 c15 -36
49 -37 62 -3 5 14 12 25 15 25 3 0 10 -11 15 -25 7 -18 17 -25 35 -25 20 0 25
5 25 25 0 33 18 32 30 -1 12 -31 41 -29 55 4 13 28 33 28 37 0 5 -34 45 -36
60 -4 14 31 24 33 31 6 3 -14 14 -20 31 -20 19 0 26 5 26 20 0 28 19 25 30 -5
14 -37 41 -30 55 13 l7 24 24 -23 23 -22 30 32 c17 18 33 48 37 67 6 32 8 34
23 19 15 -12 52 -15 222 -15 181 0 207 2 235 19 l30 18 -4 -27 c-6 -42 22 -86
65 -102 47 -16 204 -14 245 3 16 7 34 23 39 37 9 22 11 23 27 10 9 -9 22 -14
27 -13 6 2 22 6 38 9 16 4 27 13 27 23 0 9 3 13 7 10 3 -4 5 -34 4 -67 -1 -33
5 -84 14 -112 12 -43 15 -121 15 -445 0 -337 2 -398 16 -433 9 -22 21 -40 26
-40 5 0 51 -40 101 -89 51 -48 119 -112 151 -142 89 -81 96 -88 96 -99 0 -5 5
-10 11 -10 6 0 53 -42 105 -92 52 -51 131 -127 176 -168 44 -41 123 -117 175
-167 53 -51 97 -93 99 -93 2 0 54 -50 116 -110 76 -75 118 -108 128 -104 8 3
56 18 105 33 203 63 314 94 377 107 37 7 77 18 88 24 12 7 61 22 108 34 48 13
144 40 215 61 70 20 133 35 141 32 7 -3 16 -18 19 -34 9 -50 37 -155 67 -253
15 -52 36 -123 46 -158 23 -84 30 -89 100 -63 31 12 57 20 59 19 1 -2 9 -24
19 -51 17 -45 17 -50 0 -98 -16 -43 -16 -54 -5 -82 7 -18 21 -57 30 -89 24
-83 54 -118 103 -118 l38 0 -4 -85 c-4 -78 -2 -86 16 -96 18 -10 20 -18 15
-60 -6 -44 -4 -51 18 -65 14 -9 25 -23 25 -32 0 -33 42 -102 66 -108 16 -4 24
-13 24 -29 0 -12 12 -35 26 -50 l26 -28 54 18 c60 20 67 31 58 91 -4 31 -1 49
11 68 12 18 15 36 11 58 -4 18 -8 59 -9 91 -2 45 -7 61 -20 69 -16 8 -18 18
-12 58 5 37 3 49 -9 53 -8 3 -25 25 -36 48 -12 23 -30 44 -41 46 -22 6 -26 23
-5 23 23 0 63 42 74 77 9 26 7 44 -9 90 -10 31 -19 66 -19 79 0 37 -21 73 -55
94 -25 15 -34 30 -39 59 -3 21 -13 44 -21 51 -14 12 -13 15 12 25 15 6 44 12
63 13 85 3 220 76 220 119 0 7 4 13 9 13 13 0 25 39 22 68 -1 12 -18 45 -37
73 -19 28 -34 54 -34 58 0 7 -82 35 -135 46 -16 4 -36 12 -43 18 -8 6 -21 11
-30 12 -10 1 -49 25 -88 54 -118 86 -185 194 -228 366 -7 28 -18 59 -24 71 -6
12 -83 237 -171 500 -88 263 -166 493 -173 511 -11 29 -9 38 35 125 51 102 68
181 67 305 -2 96 -53 257 -97 301 -7 7 -18 21 -25 30 -26 35 -137 122 -155
122 -11 0 -23 4 -29 9 -5 6 -36 17 -69 26 -47 13 -103 15 -263 13 -111 -1
-204 -3 -205 -4z m-900 -934 c-3 -12 1 -40 8 -63 43 -136 95 -317 95 -333 1
-29 51 -96 88 -117 47 -28 220 -25 238 4 10 17 65 9 132 -18 68 -26 174 -88
180 -104 2 -5 9 -9 17 -9 15 0 116 -114 137 -155 8 -16 18 -60 21 -97 4 -38
20 -112 36 -165 17 -54 45 -148 63 -208 18 -61 42 -123 53 -138 25 -34 80 -45
138 -27 23 7 71 21 107 32 88 26 128 48 134 72 11 40 6 93 -14 152 -11 32 -20
67 -20 78 0 22 -53 217 -81 298 -12 34 -17 67 -13 82 9 39 -51 206 -92 253
-34 39 -66 115 -84 194 -5 24 -12 57 -16 73 -6 26 -5 27 15 17 11 -7 21 -16
21 -21 0 -5 14 -16 30 -25 17 -9 30 -23 30 -31 0 -9 8 -18 18 -21 20 -5 66
-75 98 -148 26 -58 48 -203 39 -246 -7 -32 -6 -33 28 -20 23 9 26 7 40 -42 9
-29 18 -68 22 -87 6 -36 53 -208 86 -315 17 -58 56 -200 66 -240 4 -17 -5 -23
-59 -39 -35 -10 -81 -24 -103 -31 -41 -13 -95 -27 -167 -46 -71 -17 -137 -36
-258 -73 -63 -20 -142 -42 -175 -50 -102 -25 -149 -38 -165 -43 -48 -18 -62
-12 -138 61 -43 40 -108 102 -146 137 -127 117 -243 228 -531 505 -121 116
-236 225 -255 242 l-35 30 -5 341 c-3 188 -4 345 -2 350 1 4 98 9 214 10 210
2 211 2 205 -19z"/>
<path d="M4545 6170 c4 -6 11 -8 16 -5 14 9 11 15 -7 15 -8 0 -12 -5 -9 -10z"/>
<path d="M4105 6069 c-4 -6 -5 -12 -2 -15 2 -3 7 2 10 11 7 17 1 20 -8 4z"/>
<path d="M4640 6034 c0 -31 23 -28 28 4 2 15 -2 22 -12 22 -11 0 -16 -9 -16
-26z"/>
<path d="M3777 6002 c-30 -18 -31 -35 -2 -41 17 -3 54 32 55 52 0 12 -23 7
-53 -11z"/>
<path d="M3943 5923 c-17 -35 -16 -38 6 -40 21 -2 47 39 37 56 -12 19 -30 12
-43 -16z"/>
<path d="M4027 5910 c-7 -11 -17 -17 -20 -14 -7 8 -37 -21 -37 -35 0 -26 46
-9 67 24 23 37 14 59 -10 25z"/>
<path d="M3735 5864 c-23 -25 -24 -28 -7 -40 24 -19 32 -17 32 7 0 13 8 23 20
26 12 3 19 11 17 17 -7 22 -37 17 -62 -10z"/>
<path d="M3823 5870 c-18 -7 -23 -17 -23 -45 0 -19 3 -35 8 -35 4 0 13 -9 20
-20 10 -17 9 -32 -8 -86 -24 -78 -23 -74 -7 -74 28 0 50 38 44 75 -3 20 -1 47
5 61 10 21 8 27 -10 40 -12 8 -22 24 -22 36 0 16 5 19 24 16 28 -6 45 20 24
34 -16 10 -27 9 -55 -2z"/>
<path d="M4172 5793 c-12 -2 -20 -9 -17 -14 9 -14 32 -11 39 6 3 8 4 14 3 14
-1 -1 -12 -4 -25 -6z"/>
<path d="M3941 5734 c0 -11 3 -14 6 -6 3 7 2 16 -1 19 -3 4 -6 -2 -5 -13z"/>
<path d="M4045 5650 c-3 -5 -1 -10 4 -10 6 0 11 5 11 10 0 6 -2 10 -4 10 -3 0
-8 -4 -11 -10z"/>
<path d="M4273 5313 c-27 -5 -29 -16 -7 -34 13 -10 17 -10 25 2 8 12 13 41 7
38 -2 -1 -13 -4 -25 -6z"/>
<path d="M4357 5244 c-8 -8 1 -24 14 -24 5 0 9 7 9 15 0 15 -12 20 -23 9z"/>
<path d="M4287 5217 c-21 -32 -22 -57 -3 -57 25 0 39 27 29 56 l-9 27 -17 -26z"/>
<path d="M4643 5119 c-16 -16 -17 -49 -3 -49 13 0 23 24 18 45 -2 13 -5 14
-15 4z"/>
<path d="M4293 5107 c-2 -4 0 -14 7 -21 6 -8 8 -26 4 -40 -3 -15 -2 -26 4 -26
19 0 42 12 42 22 0 5 -5 6 -10 3 -7 -4 -8 7 -4 34 6 37 5 40 -16 38 -12 -1
-24 -5 -27 -10z"/>
<path d="M4640 5015 c0 -14 21 -45 31 -45 18 0 5 45 -13 48 -10 2 -18 1 -18
-3z"/>
<path d="M4260 4950 c-12 -7 -12 -12 -3 -21 9 -9 16 -9 27 1 26 21 5 39 -24
20z"/>
<path d="M4340 4757 c0 -8 6 -17 13 -20 10 -4 10 -7 0 -18 -7 -7 -13 -26 -13
-41 0 -29 27 -48 75 -54 11 -1 30 -5 43 -9 15 -5 22 -3 22 5 0 9 10 11 31 6
48 -9 62 7 44 51 -20 47 -53 73 -81 63 -14 -6 -26 -4 -35 5 -8 8 -33 17 -56
21 -35 5 -43 4 -43 -9z m158 -84 c2 -8 -5 -13 -17 -13 -12 0 -21 6 -21 16 0
18 31 15 38 -3z"/>
<path d="M3240 4751 c0 -5 5 -13 10 -16 6 -3 10 -2 10 4 0 5 -4 13 -10 16 -5
3 -10 2 -10 -4z"/>
<path d="M3382 4659 c3 -24 33 -48 44 -36 4 4 2 18 -4 32 -14 31 -45 34 -40 4z"/>
<path d="M4310 4664 c0 -8 5 -12 10 -9 6 4 8 11 5 16 -9 14 -15 11 -15 -7z"/>
<path d="M5086 4612 c-3 -6 -1 -14 5 -17 15 -10 25 3 12 16 -7 7 -13 7 -17 1z"/>
<path d="M4540 4590 c-16 -30 -12 -40 15 -40 16 0 25 -6 25 -15 0 -9 11 -20
24 -27 30 -13 40 -34 21 -42 -8 -3 -11 -13 -8 -25 7 -27 23 -27 23 -1 0 25 17
26 38 1 10 -10 37 -29 62 -42 25 -13 56 -32 69 -41 37 -28 48 -23 48 22 0 37
-11 54 -19 30 -2 -6 -17 -6 -43 1 -45 12 -105 64 -105 91 0 12 -7 18 -21 18
-29 0 -59 18 -59 35 0 8 -4 15 -10 15 -5 0 -19 9 -30 20 -19 19 -20 19 -30 0z"/>
<path d="M12819 4590 c26 -22 41 -26 41 -10 0 6 -12 15 -26 20 -37 15 -42 12
-15 -10z"/>
<path d="M4412 4583 c2 -10 13 -22 26 -28 12 -5 22 -16 22 -24 0 -11 3 -11 15
-1 8 7 15 21 15 31 0 14 -6 17 -29 14 -23 -2 -28 0 -24 11 3 9 -1 14 -12 14
-10 0 -15 -6 -13 -17z"/>
<path d="M5000 4565 c0 -9 9 -15 25 -15 18 0 23 4 19 15 -4 8 -15 15 -25 15
-10 0 -19 -7 -19 -15z"/>
<path d="M3274 4545 c-3 -8 -3 -19 1 -25 11 -18 25 -11 25 15 0 27 -17 34 -26
10z"/>
<path d="M4386 4524 c-4 -10 -1 -14 6 -12 15 5 23 28 10 28 -5 0 -13 -7 -16
-16z"/>
<path d="M5066 4525 c-3 -9 -6 -28 -6 -42 0 -34 24 -24 28 11 4 33 -12 56 -22
31z"/>
<path d="M4510 4490 c0 -5 -7 -10 -16 -10 -8 0 -12 -5 -9 -10 4 -6 7 -40 6
-75 0 -51 3 -65 14 -65 8 0 18 -1 21 -2 4 -2 8 36 10 85 4 73 2 87 -11 87 -8
0 -15 -4 -15 -10z"/>
<path d="M3350 4445 c0 -16 6 -25 16 -25 9 0 18 -9 21 -20 7 -27 22 -25 32 3
12 30 5 38 -25 31 -20 -5 -24 -2 -24 15 0 12 -4 21 -10 21 -5 0 -10 -11 -10
-25z"/>
<path d="M3472 4403 c2 -17 10 -29 21 -31 15 -3 18 2 15 25 -2 17 -10 29 -21
31 -15 3 -18 -2 -15 -25z"/>
<path d="M3980 4415 c0 -8 5 -15 10 -15 6 0 10 7 10 15 0 8 -4 15 -10 15 -5 0
-10 -7 -10 -15z"/>
<path d="M4364 4409 c-3 -6 -1 -16 5 -22 8 -8 11 -5 11 11 0 24 -5 28 -16 11z"/>
<path d="M4570 4374 c-13 -34 -13 -47 2 -42 12 4 24 68 13 68 -3 0 -10 -12
-15 -26z"/>
<path d="M2213 4383 c-18 -6 -16 -23 1 -23 17 0 30 16 19 23 -5 2 -14 2 -20 0z"/>
<path d="M3580 4371 c0 -12 6 -21 16 -21 9 0 14 7 12 17 -5 25 -28 28 -28 4z"/>
<path d="M4183 4364 c-3 -9 -2 -19 4 -23 5 -3 12 -14 16 -23 10 -28 26 -21 23
10 -2 15 -4 33 -5 40 -2 18 -31 15 -38 -4z"/>
<path d="M4664 4359 c-4 -7 -2 -15 4 -17 7 -2 12 -17 12 -33 0 -16 4 -29 9
-29 5 0 24 -14 42 -31 36 -33 49 -27 49 25 l0 29 -23 -21 c-23 -22 -24 -22
-40 -4 -9 10 -17 30 -17 44 0 31 -24 56 -36 37z"/>
<path d="M4904 4315 c-8 -34 0 -41 31 -27 40 18 55 15 55 -12 0 -13 7 -26 15
-30 10 -4 15 1 15 16 0 12 8 30 18 41 17 19 16 19 -14 13 -22 -5 -35 -2 -44 9
-7 8 -25 15 -41 15 -22 0 -30 -6 -35 -25z"/>
<path d="M5047 4260 c-3 -11 -1 -20 3 -20 5 0 16 -3 25 -6 13 -5 16 -2 13 17
-4 30 -34 37 -41 9z"/>
<path d="M5170 4216 c0 -9 5 -16 10 -16 6 0 10 4 10 9 0 6 -4 13 -10 16 -5 3
-10 -1 -10 -9z"/>
<path d="M935 4209 c-124 -7 -201 -19 -270 -39 -22 -7 -54 -14 -72 -17 -17 -3
-39 -14 -49 -24 -9 -10 -28 -19 -41 -19 -31 0 -40 -26 -18 -50 11 -12 13 -20
6 -20 -6 0 -14 7 -17 15 -11 29 -51 15 -120 -43 -88 -75 -136 -134 -169 -208
-14 -32 -30 -68 -35 -79 -18 -42 -23 -87 -9 -96 12 -8 11 -11 -1 -19 -8 -5
-18 -11 -22 -12 -9 -4 -28 -165 -28 -245 0 -35 -5 -65 -11 -69 -16 -10 -2
-182 17 -211 9 -15 14 -51 14 -115 1 -121 17 -289 30 -302 5 -5 10 -29 10 -53
0 -24 7 -60 15 -80 8 -19 15 -46 15 -60 0 -24 41 -115 65 -143 7 -8 15 -37 19
-64 3 -27 13 -57 21 -66 8 -9 15 -21 15 -26 0 -5 21 -33 48 -61 26 -28 56 -66
66 -84 27 -51 133 -123 163 -112 7 3 13 11 13 19 0 20 17 17 29 -4 6 -11 6
-24 0 -35 -11 -18 -4 -37 12 -37 5 0 9 10 9 21 0 20 2 20 22 7 13 -9 23 -24
23 -34 0 -13 15 -23 49 -36 27 -9 52 -17 55 -16 3 1 13 -1 21 -5 50 -20 434
-34 445 -17 3 5 31 6 64 3 64 -6 79 3 61 37 -15 27 10 28 28 0 21 -35 34 -24
27 23 -4 23 -12 48 -17 54 -13 16 -2 87 20 133 17 34 40 51 95 70 27 10 29 13
24 53 -18 144 -17 144 -207 116 -180 -26 -308 -22 -372 12 -10 5 -27 9 -37 9
-11 0 -24 6 -28 13 -4 7 -21 20 -36 30 -15 10 -32 28 -36 40 -5 13 -16 29 -25
36 -9 7 -16 20 -16 28 0 8 -8 28 -17 46 -9 18 -16 42 -14 54 1 13 -5 33 -13
45 -10 14 -16 44 -16 78 0 31 -4 60 -9 65 -6 6 -15 127 -21 270 -16 381 -16
482 3 501 4 4 7 15 7 25 0 21 38 83 74 119 13 14 26 34 28 45 2 14 10 19 25
17 12 -2 41 3 65 11 58 20 358 26 409 9 23 -8 49 -10 75 -4 l39 8 -4 120 c-2
65 -7 124 -11 129 -4 6 -10 52 -13 104 -3 52 -11 99 -17 105 -32 32 -245 48
-455 35z m-609 -431 c-27 -37 -30 -50 -18 -69 7 -10 12 -28 12 -40 0 -14 11
-25 40 -37 30 -13 40 -23 40 -39 0 -31 -30 -30 -60 2 -29 30 -46 32 -55 4 -10
-31 -49 -22 -53 13 -2 19 -10 28 -25 30 -31 4 -35 36 -5 40 17 2 24 11 28 35
4 26 14 37 50 57 57 31 67 32 46 4z m29 -68 c-3 -5 -12 -10 -18 -10 -7 0 -6 4
3 10 19 12 23 12 15 0z m300 -1314 c-11 -8 -23 -12 -28 -9 -13 8 3 23 26 23
20 0 20 0 2 -14z m162 -151 c36 -18 69 -52 59 -62 -3 -4 -12 -1 -18 5 -18 18
-38 14 -38 -8 0 -13 10 -24 25 -30 14 -5 25 -11 25 -13 0 -9 -32 -67 -39 -71
-14 -9 -63 66 -68 105 -5 34 -3 39 14 39 29 0 35 11 16 32 -20 22 -15 23 24 3z
m198 -175 c13 -15 31 -20 67 -20 26 0 48 -4 48 -10 0 -5 -19 -10 -43 -10 -33
0 -51 7 -77 30 -19 16 -30 29 -24 30 6 0 19 -9 29 -20z m341 -16 c-3 -9 -9
-27 -12 -40 -7 -29 -5 -29 -48 -3 l-36 21 23 19 c28 24 82 26 73 3z"/>
<path d="M4315 4179 c-4 -11 -4 -23 -2 -26 9 -8 27 7 27 22 0 23 -18 27 -25 4z"/>
<path d="M4795 4069 c-4 -6 -5 -13 -2 -16 7 -7 27 6 27 18 0 12 -17 12 -25 -2z"/>
<path d="M4986 3985 c-3 -8 -1 -17 3 -20 5 -3 11 2 15 10 3 8 1 17 -3 20 -5 3
-11 -2 -15 -10z"/>
<path d="M5050 3840 c0 -5 7 -10 16 -10 8 0 12 5 9 10 -3 6 -10 10 -16 10 -5
0 -9 -4 -9 -10z"/>
<path d="M4382 3714 c1 -9 9 -19 16 -22 9 -3 13 2 10 14 -1 9 -9 19 -16 22 -9
3 -13 -2 -10 -14z"/>
<path d="M4040 3696 c0 -16 6 -26 15 -26 8 0 18 0 23 0 4 0 7 8 7 18 0 9 -4
17 -10 17 -5 0 -16 4 -22 8 -9 6 -13 1 -13 -17z"/>
<path d="M5360 3625 c0 -8 7 -15 15 -15 8 0 15 7 15 15 0 8 -7 15 -15 15 -8 0
-15 -7 -15 -15z"/>
<path d="M4853 3610 c-12 -5 -55 -8 -97 -6 -56 2 -77 -1 -80 -11 -4 -10 -11
-11 -25 -3 -29 15 -55 12 -82 -9 -13 -10 -37 -21 -54 -24 -16 -3 -47 -11 -68
-19 -32 -11 -38 -17 -34 -35 2 -13 0 -23 -4 -23 -5 0 -9 -7 -9 -15 0 -9 -9
-15 -23 -15 -12 0 -32 -7 -45 -15 -21 -15 -22 -15 -28 25 -5 30 -11 40 -25 40
-11 0 -19 -7 -19 -15 0 -17 -16 -20 -25 -5 -10 17 -54 11 -64 -8 -19 -37 -11
-186 14 -245 4 -9 3 -23 -1 -30 -5 -6 -9 -37 -9 -67 0 -50 2 -56 28 -68 25
-12 35 -12 77 2 27 9 62 16 79 16 16 0 32 4 36 9 6 10 29 12 165 14 163 2 227
-15 307 -82 l41 -34 0 -78 c0 -44 -3 -79 -6 -79 -3 0 -20 5 -38 12 -27 9 -40
9 -71 -5 -21 -8 -55 -19 -77 -22 -35 -6 -38 -4 -32 12 14 35 11 38 -46 41 -63
3 -108 -17 -108 -49 0 -26 19 -33 39 -15 31 28 72 16 97 -28 5 -11 31 -25 58
-33 40 -12 47 -17 44 -36 -2 -12 -8 -21 -13 -21 -6 1 -25 4 -43 8 -26 4 -34 2
-39 -12 -4 -9 -13 -23 -21 -31 -9 -10 -10 -17 -3 -24 16 -16 13 -34 -6 -41
-10 -4 -24 1 -37 13 -20 20 -20 21 -1 35 14 10 20 30 23 76 l5 63 -39 -6 c-22
-4 -45 -7 -51 -7 -7 0 -13 -9 -13 -20 0 -13 7 -20 20 -20 29 0 25 -17 -6 -24
-20 -5 -30 -2 -41 14 -9 12 -25 20 -44 20 -42 0 -36 -22 11 -43 36 -15 39 -20
30 -37 -14 -25 -30 -26 -30 -1 0 27 -43 51 -90 51 -30 0 -40 4 -40 16 0 11 5
14 18 9 37 -16 47 -11 48 24 0 40 29 63 39 31 6 -20 50 -38 63 -26 12 13 -15
41 -62 64 -44 21 -49 22 -60 7 -7 -9 -19 -15 -27 -14 -23 5 -186 -106 -194
-133 -4 -13 -16 -31 -27 -41 -12 -12 -17 -26 -12 -39 4 -14 0 -24 -15 -34 -27
-19 -26 -28 1 -54 l22 -20 -22 0 c-31 0 -37 -17 -34 -100 1 -58 6 -78 19 -88
14 -10 15 -16 5 -30 -7 -9 -15 -23 -18 -30 -9 -18 16 -120 30 -125 7 -3 31 7
55 21 41 24 43 27 37 64 -3 21 -3 38 1 38 20 -1 34 -19 31 -41 -2 -20 2 -25
25 -27 l27 -3 0 70 0 71 31 0 c42 0 69 -17 69 -43 0 -12 6 -31 14 -42 7 -11
16 -30 20 -42 6 -19 3 -23 -12 -23 -11 0 -22 7 -26 15 -3 8 -12 15 -21 15 -21
0 -95 -38 -95 -49 0 -5 -16 -16 -36 -26 -49 -23 -44 -53 14 -73 23 -7 42 -18
42 -23 0 -17 -73 3 -91 24 -16 21 -39 16 -39 -8 0 -18 88 -75 117 -75 29 0 29
-7 1 -31 -30 -24 -35 -24 -70 6 -16 14 -34 25 -39 25 -18 0 -9 -39 11 -45 11
-3 20 -15 20 -25 0 -11 15 -30 33 -44 37 -28 62 -34 54 -13 -4 10 6 14 38 13
42 -1 43 -1 24 -19 -24 -23 -24 -44 1 -57 34 -18 66 7 61 48 -2 14 30 16 44 3
6 -5 21 -11 34 -13 18 -2 27 -12 33 -35 6 -24 16 -35 36 -39 15 -4 30 -11 33
-16 8 -13 59 9 59 25 0 7 -5 18 -12 25 -19 19 6 15 45 -8 43 -25 117 -19 124
11 3 10 11 15 18 13 18 -7 62 21 108 70 20 22 38 37 40 35 2 -2 9 -23 15 -46
21 -71 30 -76 151 -69 58 3 153 10 211 16 58 5 117 11 133 11 30 2 35 20 12
39 -8 7 -15 22 -15 34 -1 11 -7 32 -15 46 -20 35 -18 50 5 50 16 0 19 5 15 23
-3 12 -7 60 -8 107 l-3 85 -27 -3 c-20 -2 -25 1 -21 12 3 8 14 16 25 19 14 4
19 14 19 38 0 31 0 32 20 14 11 -10 20 -30 20 -45 0 -31 7 -41 25 -34 9 4 12
23 8 67 -2 34 -5 130 -7 214 -1 103 -6 156 -15 167 -10 11 -10 27 0 75 9 46 9
64 0 75 -6 7 -10 22 -10 32 1 11 1 38 1 61 -2 36 -5 41 -19 36 -10 -3 -26 -13
-36 -22 -16 -13 -19 -13 -28 -1 -16 26 -6 55 19 53 17 -2 22 2 22 22 0 14 5
33 11 43 9 14 4 32 -20 85 -17 37 -31 76 -31 87 0 10 -4 21 -9 25 -6 3 -6 17
1 36 10 30 5 149 -7 169 -3 5 -16 5 -31 -2 -20 -9 -24 -17 -19 -36 14 -58 17
-83 11 -107 -9 -35 -32 -31 -40 8 -10 48 -10 59 -2 95 6 26 4 32 -8 32 -9 0
-16 -6 -16 -14 0 -8 -6 -16 -14 -19 -21 -8 -65 73 -59 107 3 14 1 26 -5 26 -5
0 -12 9 -15 19 -5 19 -20 23 -157 36 -30 4 -60 12 -66 20 -6 8 -25 18 -43 21
-17 4 -34 11 -37 15 -6 11 -32 11 -61 -1z m-13 -60 c0 -5 -2 -10 -4 -10 -3 0
-8 5 -11 10 -3 6 -1 10 4 10 6 0 11 -4 11 -10z m-245 -13 c17 -13 17 -14 -4
-20 -15 -3 -24 1 -31 14 -13 23 6 26 35 6z m363 -4 c6 -19 -25 -16 -32 3 -4
11 -1 14 11 12 9 -2 18 -9 21 -15z m-60 -31 c2 -15 -2 -22 -12 -22 -11 0 -16
9 -16 26 0 31 23 28 28 -4z m-348 0 c-8 -3 -29 -16 -46 -29 -36 -27 -50 -29
-57 -9 -10 26 48 56 92 48 17 -4 21 -7 11 -10z m651 -79 c1 -16 1 -34 0 -40
-1 -7 4 -13 12 -13 7 0 28 -18 46 -40 l32 -41 -23 -19 c-13 -11 -36 -19 -52
-20 l-30 0 32 28 c38 34 41 52 8 52 -32 0 -83 85 -65 106 19 23 39 16 40 -13z
m-201 -58 c-11 -12 -20 -28 -20 -35 0 -22 -18 1 -25 32 -6 23 -3 29 16 37 37
14 55 -6 29 -34z m-760 -10 c0 -8 -7 -15 -16 -15 -14 0 -14 3 -4 15 7 8 14 15
16 15 2 0 4 -7 4 -15z m793 -113 c-4 -18 -1 -24 16 -29 11 -3 21 -9 21 -13 0
-21 -60 17 -73 46 -19 38 -14 46 18 30 19 -8 23 -16 18 -34z m108 11 c7 -19 5
-23 -11 -23 -11 0 -20 7 -20 15 0 8 -4 15 -10 15 -5 0 -10 5 -10 11 0 19 43 4
51 -18z m211 -58 c0 -5 -5 -11 -11 -13 -6 -2 -11 4 -11 13 0 9 5 15 11 13 6
-2 11 -8 11 -13z m-172 -75 c0 -5 -7 -7 -15 -4 -8 4 -15 8 -15 10 0 2 7 4 15
4 8 0 15 -4 15 -10z m120 0 c-20 -13 -33 -13 -25 0 3 6 14 10 23 10 15 0 15
-2 2 -10z m-170 -30 c0 -26 25 -36 53 -22 37 17 57 22 57 12 0 -5 -12 -15 -27
-22 -16 -7 -27 -17 -25 -21 1 -4 2 -21 2 -38 0 -22 5 -32 20 -36 11 -3 20 -13
20 -22 0 -9 6 -23 13 -30 10 -10 1 -12 -43 -9 -51 3 -55 5 -52 26 2 13 -3 31
-12 41 -8 9 -18 32 -21 51 -2 19 -8 47 -11 63 -5 21 -3 27 10 27 9 0 16 -8 16
-20z m307 -1 c9 -9 8 -15 -3 -26 -10 -10 -12 -26 -8 -54 7 -44 -10 -55 -25
-16 -5 13 -16 29 -25 36 -23 19 -21 51 3 51 11 0 23 5 26 10 8 13 18 13 32 -1z
m21 -249 c13 -35 -2 -50 -18 -19 -10 18 -8 49 4 49 2 0 9 -13 14 -30z m-218
-53 c0 -5 -4 -5 -10 -2 -5 3 -10 14 -10 23 0 15 2 15 10 2 5 -8 10 -19 10 -23z
m248 -20 c11 -13 5 -55 -15 -107 -11 -26 -2 -72 17 -95 8 -10 8 -19 -1 -33
-12 -20 -13 -20 -27 6 -11 19 -15 55 -13 126 1 54 4 102 7 107 7 13 20 11 32
-4z m-445 -217 c-8 -36 -22 -50 -48 -50 -28 0 -54 27 -34 35 64 22 69 26 69
47 0 18 2 20 10 8 5 -8 6 -26 3 -40z m-313 20 c0 -5 -2 -10 -4 -10 -3 0 -8 5
-11 10 -3 6 -1 10 4 10 6 0 11 -4 11 -10z m-100 -41 c0 -5 -4 -9 -10 -9 -5 0
-10 7 -10 16 0 8 5 12 10 9 6 -3 10 -10 10 -16z m-189 -29 l7 -34 -19 24 -19
25 0 -25 c0 -14 -5 -32 -10 -40 -15 -23 -13 30 3 63 16 34 30 30 38 -13z m255
21 c5 -6 30 -5 63 1 39 8 62 8 85 0 18 -7 40 -12 49 -12 23 0 51 -45 43 -72
-4 -17 3 -30 25 -50 17 -16 37 -28 45 -28 8 0 14 -8 14 -17 0 -14 -2 -15 -9
-5 -4 8 -19 12 -31 10 -19 -2 -26 -14 -40 -65 -9 -34 -24 -73 -34 -87 -17 -27
-74 -57 -116 -62 -14 -1 -37 -5 -51 -9 -18 -5 -41 1 -77 19 -47 24 -52 30 -68
83 -9 32 -21 67 -26 78 -12 27 34 163 62 182 11 8 20 21 20 29 0 16 31 19 46
5z m554 -27 c-18 -21 -24 -10 -9 18 8 14 14 18 17 10 2 -7 -2 -19 -8 -28z
m246 -94 c-1 -70 -12 -72 -43 -9 -28 56 -28 57 5 62 15 2 30 5 33 6 3 0 5 -26
5 -59z m-428 9 l2 -34 -15 25 c-18 31 -19 53 -2 48 6 -3 13 -20 15 -39z m142
31 c0 -5 -5 -10 -11 -10 -5 0 -7 5 -4 10 3 6 8 10 11 10 2 0 4 -4 4 -10z
m-884 -56 c14 -20 12 -21 -36 -22 -57 -1 -70 10 -38 33 29 20 57 16 74 -11z
m1054 -180 c0 -8 -5 -12 -10 -9 -6 4 -8 11 -5 16 9 14 15 11 15 -7z m-885
-174 c3 -5 -1 -10 -9 -10 -9 0 -16 5 -16 10 0 6 4 10 9 10 6 0 13 -4 16 -10z
m741 -78 c-12 -12 -19 -13 -28 -4 -8 8 -5 16 13 31 20 17 25 17 27 4 2 -8 -3
-23 -12 -31z m-76 -67 c0 -8 -6 -15 -14 -15 -17 0 -28 14 -19 24 12 12 33 6
33 -9z m-65 -5 c17 -7 14 -9 -13 -9 -20 -1 -31 3 -27 9 7 12 13 12 40 0z
m-285 -35 c7 -9 10 -18 7 -22 -8 -7 -37 15 -37 28 0 14 16 11 30 -6z"/>
<path d="M6682 3594 c-12 -8 -37 -15 -55 -14 -51 3 -57 1 -57 -19 0 -32 -25
-45 -59 -31 -45 18 -83 4 -141 -51 -29 -27 -57 -48 -63 -46 -6 2 -20 31 -32
65 -12 37 -27 63 -37 65 -10 3 -110 3 -224 -1 -200 -5 -207 -6 -235 -29 -25
-22 -29 -32 -29 -77 0 -29 -5 -57 -12 -64 -8 -8 -8 -15 0 -24 7 -9 7 -27 -1
-61 -8 -36 -7 -52 3 -72 9 -18 10 -28 2 -37 -7 -9 -9 -48 -7 -103 2 -50 5
-160 5 -245 1 -193 8 -260 26 -260 8 0 14 -7 14 -16 0 -9 7 -31 16 -50 19 -39
13 -64 -15 -64 -11 0 -24 -8 -29 -17 -14 -28 -24 -133 -12 -133 14 0 13 -27
-1 -32 -12 -4 -14 -410 -3 -475 l6 -33 273 0 c305 0 302 -1 291 67 -4 21 -6
45 -6 53 8 144 18 580 19 760 1 208 4 242 21 290 26 72 72 115 133 124 40 6
51 3 87 -20 24 -16 43 -37 46 -53 3 -14 10 -39 15 -55 5 -16 9 -50 9 -76 0
-75 10 -107 34 -115 20 -7 20 -7 -4 -14 l-25 -7 -3 -164 c-1 -91 -5 -172 -8
-180 -4 -8 -7 -79 -8 -158 -2 -154 3 -174 44 -152 12 6 24 9 27 6 8 -8 -17
-35 -47 -51 l-26 -13 3 -114 c3 -97 7 -115 23 -130 18 -14 52 -16 264 -17 231
0 245 1 270 20 28 22 32 44 15 83 -9 19 -9 29 0 40 8 10 11 93 11 295 -1 155
2 287 7 294 10 17 3 627 -8 649 -5 9 -9 37 -9 61 0 40 -3 46 -30 57 -31 13
-37 24 -20 35 13 8 13 65 0 85 -21 34 -147 154 -175 167 -16 7 -37 17 -45 22
-27 15 -86 31 -118 31 -17 0 -34 5 -37 10 -9 15 -58 12 -83 -6z m-124 -119
c31 -29 57 -32 70 -9 7 13 11 6 16 -25 3 -23 4 -46 1 -52 -9 -14 -35 -11 -35
5 0 8 -20 29 -45 47 -25 18 -45 38 -45 46 0 19 7 16 38 -12z m-48 -54 c0 -14
-18 -23 -30 -16 -6 4 -8 11 -5 16 8 12 35 12 35 0z m560 -133 c0 -5 0 -21 0
-37 0 -24 -3 -28 -24 -24 -20 4 -24 11 -23 39 1 31 4 35 24 32 13 -2 23 -6 23
-10z m-1017 -85 c31 -34 38 -48 35 -75 -2 -25 -8 -33 -23 -33 -11 0 -26 -4
-32 -8 -10 -6 -13 1 -13 28 0 20 -11 56 -25 81 -14 25 -25 46 -25 47 0 2 10 3
23 2 13 0 38 -17 60 -42z m890 -579 c13 -14 -6 -30 -31 -27 -24 4 -30 -1 -52
-49 -13 -29 -32 -75 -41 -103 -14 -40 -19 -46 -25 -31 -4 10 -2 34 5 53 7 18
11 51 10 73 -3 35 1 42 31 64 33 23 89 34 103 20z m-163 -293 c0 -5 -7 -14
-15 -21 -13 -10 -15 -9 -15 9 0 12 6 21 15 21 8 0 15 -4 15 -9z m-955 -58 c36
6 41 2 25 -23 -8 -12 -12 -12 -37 0 -40 21 -55 38 -47 52 5 7 10 4 16 -12 7
-19 13 -22 43 -17z m868 -78 c4 -8 2 -17 -3 -20 -6 -4 -10 3 -10 14 0 25 6 27
13 6z m-693 -35 c0 -5 -12 -10 -26 -10 -14 0 -23 4 -19 10 3 6 15 10 26 10 10
0 19 -4 19 -10z m975 -30 c8 -12 -52 -42 -73 -37 -13 4 -12 5 4 6 11 0 29 10
39 21 21 23 22 23 30 10z m-785 -30 c0 -5 -5 -10 -11 -10 -5 0 -7 5 -4 10 3 6
8 10 11 10 2 0 4 -4 4 -10z m40 -171 c0 -5 -4 -9 -10 -9 -5 0 -10 7 -10 16 0
8 5 12 10 9 6 -3 10 -10 10 -16z"/>
<path d="M3160 3535 c-9 -11 -16 -13 -24 -5 -15 15 -47 12 -67 -6 -12 -11 -23
-13 -34 -6 -18 9 -71 -4 -96 -25 -8 -6 -29 -14 -48 -18 -22 -5 -39 -17 -50
-36 -10 -19 -24 -29 -39 -29 -35 0 -117 -84 -162 -165 -66 -120 -100 -250
-100 -386 0 -68 7 -82 45 -92 15 -3 13 -5 -8 -6 -39 -1 -43 -23 -19 -99 12
-37 24 -80 27 -95 5 -26 4 -28 -15 -22 -21 7 -21 5 -17 -77 2 -45 10 -103 16
-128 7 -25 16 -63 20 -85 10 -45 86 -196 106 -207 7 -4 18 -21 25 -37 7 -17
20 -33 29 -36 9 -3 43 -30 75 -60 38 -35 74 -59 100 -66 23 -6 44 -15 47 -21
7 -11 137 -48 189 -53 19 -3 55 -8 80 -14 56 -11 270 -7 370 7 121 17 147 28
159 65 15 44 12 354 -3 366 -6 5 -42 7 -81 4 -135 -8 -301 -5 -360 6 -33 7
-77 14 -98 18 -53 7 -136 90 -161 159 -9 27 -21 57 -27 67 -8 14 -5 17 16 17
14 0 34 6 45 12 15 10 22 10 32 0 8 -8 44 -12 99 -12 48 0 91 -4 94 -10 9 -15
298 -13 313 2 9 9 21 8 53 -2 38 -13 43 -12 54 4 8 10 11 24 8 32 -4 10 3 14
25 14 26 0 31 -4 34 -27 2 -14 9 -28 15 -31 21 -6 27 27 9 47 -15 17 -14 19
19 37 19 10 38 26 40 35 9 27 -4 400 -13 413 -5 6 -12 35 -15 65 -4 29 -21 83
-38 120 -18 36 -33 68 -33 71 -3 14 -99 130 -139 167 -38 36 -116 79 -202 114
-41 16 -82 22 -181 26 -84 4 -103 2 -114 -12z m-46 -80 c7 -19 -35 -38 -46
-21 -12 18 -9 24 15 29 12 2 23 5 23 6 1 0 5 -6 8 -14z m451 -25 c3 -5 -1 -10
-9 -10 -9 0 -16 5 -16 10 0 6 4 10 9 10 6 0 13 -4 16 -10z m-516 -25 c2 -2 1
-11 -2 -19 -8 -19 -28 -12 -46 16 -12 20 -11 20 16 13 15 -3 30 -8 32 -10z
m500 -51 c26 -44 26 -42 -4 -36 -15 2 -25 0 -25 -7 0 -7 -4 -9 -10 -6 -5 3
-10 12 -10 20 0 16 18 65 24 65 2 0 13 -16 25 -36z m-225 -270 c25 -14 46 -32
46 -39 0 -7 7 -16 16 -19 9 -3 14 -13 11 -20 -7 -17 10 -83 22 -91 5 -3 24 2
43 12 18 9 45 23 60 30 l28 14 -6 -33 c-4 -18 -11 -37 -15 -42 -5 -6 -9 -18
-9 -27 0 -15 -5 -16 -36 -7 -44 12 -64 5 -64 -22 0 -18 -4 -20 -33 -15 -18 4
-102 7 -186 8 l-153 2 -2 43 c-1 24 1 45 6 48 4 3 8 21 8 40 0 115 149 182
264 118z m-674 -696 c0 -16 -4 -28 -10 -28 -5 0 -10 19 -10 43 0 31 3 38 10
27 5 -8 10 -27 10 -42z m74 -103 c-4 -8 -10 -13 -15 -10 -4 3 -6 12 -3 20 4 8
10 13 15 10 4 -3 6 -12 3 -20z m246 -405 c0 -11 -2 -20 -4 -20 -2 0 -6 9 -9
20 -3 11 -1 20 4 20 5 0 9 -9 9 -20z"/>
<path d="M5315 3504 c-7 -39 -3 -50 15 -39 6 4 8 15 5 25 -3 10 -1 21 5 25 15
9 12 25 -4 25 -8 0 -17 -15 -21 -36z"/>
<path d="M4338 3519 c-34 -19 -16 -56 21 -44 24 7 35 55 12 55 -9 0 -24 -5
-33 -11z"/>
<path d="M5426 3523 c-12 -12 -6 -43 9 -43 8 0 15 9 15 19 0 21 -13 34 -24 24z"/>
<path d="M4060 3482 c0 -10 33 -42 43 -42 14 0 6 38 -9 44 -22 8 -34 8 -34 -2z"/>
<path d="M7772 3199 c2 -6 8 -10 13 -10 5 0 11 4 13 10 2 6 -4 11 -13 11 -9 0
-15 -5 -13 -11z"/>
<path d="M1536 1983 c-11 -11 -6 -23 9 -23 8 0 15 4 15 9 0 13 -16 22 -24 14z"/>
<path d="M1510 1919 c0 -6 -9 -9 -19 -6 -35 9 -44 -7 -36 -62 6 -47 9 -51 33
-51 60 0 72 9 71 54 -1 22 -3 49 -6 59 -5 19 -43 24 -43 6z m12 -44 c0 -5 -5
-11 -11 -13 -6 -2 -11 4 -11 13 0 9 5 15 11 13 6 -2 11 -8 11 -13z"/>
<path d="M4487 1774 c-11 -11 -8 -44 3 -44 15 0 24 30 13 41 -5 5 -12 6 -16 3z"/>
<path d="M5470 1733 c0 -9 6 -24 14 -32 20 -22 23 -55 8 -73 -10 -13 -9 -20 8
-39 10 -13 20 -19 21 -14 7 55 -19 175 -38 175 -7 0 -13 -8 -13 -17z"/>
<path d="M1779 1554 c-6 -7 -8 -21 -6 -31 3 -10 8 -214 12 -453 6 -471 10
-543 30 -560 8 -6 42 -10 82 -8 l68 3 3 201 2 201 343 -5 342 -5 52 27 c64 34
71 42 89 108 20 74 18 336 -4 398 -20 59 -34 74 -95 104 l-52 25 -428 4 c-343
3 -429 1 -438 -9z m802 -181 c27 -27 38 -245 15 -275 -12 -16 -39 -18 -319
-18 -244 0 -306 3 -310 13 -3 8 -6 77 -6 155 -2 139 -2 141 21 144 13 2 150 1
305 -2 206 -4 285 -8 294 -17z"/>
<path d="M5500 1531 c0 -12 6 -21 16 -21 9 0 14 7 12 17 -5 25 -28 28 -28 4z"/>
<path d="M5530 1385 c0 -8 9 -15 20 -15 11 0 20 7 20 15 0 8 -9 15 -20 15 -11
0 -20 -7 -20 -15z"/>
<path d="M8260 1369 c-69 -3 -136 -10 -150 -14 -29 -9 -70 -44 -70 -59 0 -6
-7 -24 -16 -41 -12 -24 -15 -56 -12 -153 2 -68 6 -126 11 -129 4 -2 7 -13 7
-25 0 -23 37 -55 94 -81 35 -15 76 -18 338 -20 l298 -2 0 -102 0 -101 -82 -6
c-46 -4 -181 -5 -300 -4 l-217 3 -3 60 -3 60 -70 -3 c-42 -2 -76 -9 -84 -18
-18 -17 -29 -134 -12 -134 6 0 11 -10 11 -22 1 -33 45 -79 88 -91 22 -7 167
-13 357 -15 391 -4 440 3 470 73 4 11 7 24 6 29 -1 4 3 14 9 21 25 31 15 278
-14 340 -20 42 -33 49 -121 70 -54 12 -124 15 -333 15 -233 -1 -303 3 -266 17
6 2 9 16 8 31 -2 15 -5 53 -7 85 l-4 57 283 0 283 0 3 -57 c3 -51 5 -58 23
-56 45 4 120 26 133 40 19 18 28 98 13 107 -6 4 -11 17 -11 30 0 28 -44 68
-94 85 -44 15 -353 20 -566 10z"/>
<path d="M9432 1361 c-23 -9 -55 -28 -70 -42 -74 -71 -67 -373 10 -436 16 -14
116 -42 143 -40 11 0 140 0 286 -1 l266 -2 -1 -105 0 -105 -300 2 -301 3 3 42
c5 61 -12 87 -51 79 -18 -4 -44 -8 -58 -10 -15 -2 -38 -12 -53 -21 -23 -15
-26 -24 -26 -75 0 -39 4 -60 13 -63 9 -3 12 -16 9 -36 -4 -26 -1 -31 16 -31
11 0 22 -5 24 -11 2 -6 22 -18 43 -26 33 -13 103 -16 380 -19 222 -2 343 1
352 7 6 6 22 12 35 13 34 4 78 49 78 80 0 14 5 26 10 26 14 0 12 245 -3 302
-16 60 -37 82 -100 104 -45 16 -90 19 -341 21 -158 1 -290 3 -291 5 -2 2 -5
44 -6 93 l-2 90 280 1 281 1 5 -50 c8 -60 17 -73 45 -58 11 6 38 11 60 11 54
0 76 26 73 87 -1 26 -6 52 -11 57 -6 6 -10 17 -10 26 -1 27 -36 59 -81 74 -33
11 -119 15 -354 18 -263 4 -316 2 -353 -11z"/>
<path d="M3165 1360 c-8 -14 -8 -561 1 -745 3 -66 9 -124 13 -128 5 -4 43 -7
87 -5 l79 3 3 163 2 162 28 1 c48 2 76 2 132 1 l54 -2 79 -82 c43 -46 116
-122 162 -171 l83 -87 106 0 c58 0 108 4 111 10 8 13 -23 54 -56 74 -26 15
-101 82 -224 198 l-60 58 65 0 c90 1 147 30 178 90 20 40 22 59 22 190 0 176
-13 209 -95 249 -50 24 -53 25 -406 29 -273 3 -358 1 -364 -8z m656 -171 c19
-19 22 -32 20 -103 -4 -123 10 -117 -265 -114 l-231 3 -3 118 -3 117 231 0
c222 0 231 -1 251 -21z"/>
<path d="M6833 1355 c-18 -13 -20 -20 -11 -62 5 -26 8 -73 7 -103 -4 -209 3
-675 11 -695 l10 -25 433 0 433 0 12 33 c15 41 16 114 2 122 -6 4 -166 6 -355
6 l-345 -2 0 105 0 104 33 5 c17 2 108 4 200 3 119 -1 171 2 178 10 6 7 12 35
14 63 3 38 -1 56 -15 73 -18 22 -22 23 -217 22 l-198 -1 -1 97 -1 97 345 2
c191 1 350 5 354 7 4 3 8 36 8 74 0 53 -3 69 -16 74 -9 4 -207 6 -439 6 -349
-1 -425 -3 -442 -15z"/>
<path d="M10597 1363 c-9 -9 -8 -807 1 -858 l7 -40 75 -3 c125 -5 115 -45 112
449 -2 249 -7 430 -13 441 -8 15 -23 18 -93 18 -45 0 -86 -3 -89 -7z"/>
<path d="M11231 1341 c-43 -22 -57 -37 -77 -76 -23 -49 -23 -51 -19 -347 4
-315 11 -364 55 -408 47 -47 79 -50 507 -50 257 0 404 4 408 10 3 6 15 10 26
10 22 0 80 48 77 64 -1 6 3 34 10 61 9 35 11 135 9 335 -3 268 -4 287 -24 326
-27 51 -43 64 -106 86 -46 16 -90 18 -432 18 l-380 -1 -54 -28z m795 -431 l1
-290 -252 0 c-139 0 -293 3 -343 6 l-91 7 -3 283 c-2 156 0 285 4 287 5 1 160
1 346 -1 l337 -3 1 -289z"/>
<path d="M4425 1339 c-16 -10 -38 -19 -47 -19 -12 0 -18 -8 -18 -22 0 -13 -7
-32 -15 -42 -23 -30 -22 -658 0 -676 9 -7 13 -20 10 -29 -6 -20 43 -61 73 -61
10 0 22 -4 28 -10 16 -16 778 -24 806 -8 13 6 28 12 33 13 23 1 75 50 75 71 0
13 5 26 11 29 6 5 8 39 5 98 -3 51 -6 180 -7 287 -1 271 -20 329 -117 371 -40
18 -73 19 -425 18 -359 0 -384 -2 -412 -20z m755 -166 c0 -16 3 -145 6 -289
l6 -261 -333 2 c-183 1 -334 6 -336 11 -1 5 -4 134 -5 287 l-3 277 333 0 332
0 0 -27z"/>
<path d="M5741 1346 c-14 -17 -4 -845 11 -863 14 -17 81 -26 139 -18 l51 7 -4
167 -3 166 171 -3 c213 -5 214 -4 214 83 0 54 -3 66 -20 75 -13 7 -86 10 -192
10 -95 -1 -173 2 -174 7 -2 4 -4 56 -7 116 l-4 107 338 0 c222 0 340 4 344 10
4 6 8 37 10 70 4 51 1 61 -15 70 -12 6 -172 10 -433 10 -338 0 -417 -3 -426
-14z"/>
<path d="M12586 1351 c-9 -15 -16 -687 -8 -796 l7 -100 83 1 c50 0 88 6 95 13
9 9 13 97 15 322 3 267 6 309 18 298 8 -6 14 -18 14 -25 0 -8 18 -26 41 -41
22 -14 66 -53 97 -85 31 -33 68 -65 82 -73 22 -11 93 -79 187 -177 14 -16 31
-28 38 -28 7 0 50 -38 96 -85 46 -47 88 -85 95 -85 6 0 18 -10 26 -23 13 -19
22 -22 67 -19 82 6 81 -1 81 487 0 367 -2 414 -16 419 -23 9 -172 7 -178 -2
-3 -5 -6 -144 -7 -310 -1 -200 -5 -302 -12 -302 -6 0 -48 35 -93 77 -45 43
-109 103 -143 133 -33 30 -61 61 -61 68 0 6 -7 12 -15 12 -8 0 -15 6 -15 14 0
8 -12 17 -27 21 -15 3 -68 46 -118 94 -49 48 -117 113 -151 144 l-61 57 -66 0
c-36 0 -68 -4 -71 -9z"/>
<path d="M14372 1348 c-5 -7 -17 -29 -27 -48 -10 -19 -21 -37 -25 -40 -4 -3
-21 -33 -38 -67 -18 -34 -36 -64 -41 -67 -5 -4 -21 -32 -36 -63 -14 -32 -29
-60 -34 -63 -12 -8 -78 -114 -110 -179 -17 -32 -34 -61 -38 -63 -4 -1 -19 -25
-32 -51 -13 -27 -41 -76 -62 -110 -63 -100 -74 -126 -61 -139 14 -14 152 -11
170 5 8 6 27 34 44 62 42 73 52 88 65 102 9 10 78 13 307 13 286 0 295 -1 301
-20 3 -11 10 -20 14 -20 3 0 20 -29 36 -64 18 -40 39 -69 53 -75 25 -12 150
-15 176 -5 22 9 20 36 -7 75 -13 19 -54 89 -91 157 -38 68 -82 145 -100 172
-63 99 -76 122 -76 134 0 8 -7 19 -16 27 -9 7 -29 38 -45 68 -16 31 -43 79
-60 106 -16 28 -39 69 -50 92 -11 23 -29 49 -42 58 -27 19 -160 21 -175 3z
m127 -245 c17 -31 31 -60 31 -65 0 -5 16 -32 36 -61 35 -50 88 -157 81 -163
-1 -2 -90 -4 -197 -4 -182 -1 -195 0 -192 17 6 29 52 113 62 113 5 0 28 39 50
86 45 97 77 147 90 139 5 -3 22 -31 39 -62z"/>
<path d="M15324 1352 c-13 -9 -28 -870 -16 -890 13 -20 860 -12 873 9 5 7 9
42 9 75 0 47 -4 63 -16 68 -9 3 -164 6 -346 6 l-330 0 7 349 c4 192 4 359 0
370 -6 19 -14 21 -88 21 -45 0 -87 -4 -93 -8z"/>
<path d="M5450 1335 c0 -8 7 -15 15 -15 8 0 15 7 15 15 0 8 -7 15 -15 15 -8 0
-15 -7 -15 -15z"/>
<path d="M1837 338 c-22 -12 -24 -110 -3 -131 12 -11 90 -15 418 -21 221 -4
655 -12 963 -18 308 -5 1802 -12 3320 -13 1518 -1 3548 -6 4510 -11 963 -5
2506 -8 3429 -7 1557 0 1680 2 1692 17 18 25 27 102 14 126 l-11 20 -2232 1
c-1228 0 -2241 2 -2252 5 -39 7 -5455 8 -5712 0 -188 -5 -267 -5 -282 4 -30
15 -253 22 -262 8 -5 -8 -58 -13 -147 -16 -139 -4 -139 -4 -146 20 l-6 23 -18
-20 c-17 -20 -24 -21 -262 -14 -135 4 -470 7 -745 8 -467 1 -1712 16 -2086 25
-92 2 -173 0 -182 -6z"/>
</g>
</svg>
