<?xml version="1.0" encoding="iso-8859-1"?>
<!-- Generator: Adobe Illustrator 18.0.0, SVG Export Plug-In . SVG Version: 6.00 Build 0)  -->
<!DOCTYPE svg PUBLIC "-//W3C//DTD SVG 1.1//EN" "http://www.w3.org/Graphics/SVG/1.1/DTD/svg11.dtd">
<svg version="1.1" id="Capa_1" xmlns="http://www.w3.org/2000/svg" xmlns:xlink="http://www.w3.org/1999/xlink" x="0px" y="0px"
	 viewBox="0 0 297 297" style="enable-background:new 0 0 297 297;" xml:space="preserve">
<g>
	<path d="M44.965,94.904c-2.75,0-5.448,1.118-7.394,3.064s-3.064,4.644-3.064,7.394c0,2.75,1.118,5.448,3.064,7.393
		c1.946,1.946,4.644,3.065,7.394,3.065c2.76,0,5.448-1.119,7.393-3.065c1.946-1.944,3.065-4.643,3.065-7.393
		c0-2.75-1.119-5.448-3.065-7.394C50.414,96.022,47.726,94.904,44.965,94.904z"/>
	<path d="M44.965,181.18c-2.75,0-5.448,1.118-7.394,3.064s-3.064,4.644-3.064,7.394c0,2.75,1.118,5.448,3.064,7.393
		c1.946,1.945,4.644,3.065,7.394,3.065c2.76,0,5.459-1.119,7.393-3.065c1.946-1.944,3.065-4.643,3.065-7.393
		c0-2.75-1.119-5.448-3.065-7.394C50.414,182.299,47.726,181.18,44.965,181.18z"/>
	<path d="M148.497,94.904c-2.75,0-5.448,1.118-7.394,3.064s-3.064,4.644-3.064,7.394c0,2.75,1.118,5.448,3.064,7.393
		c1.946,1.946,4.644,3.065,7.394,3.065c2.76,0,5.448-1.119,7.393-3.065c1.946-1.944,3.065-4.643,3.065-7.393
		c0-2.75-1.119-5.448-3.065-7.394C153.945,96.022,151.257,94.904,148.497,94.904z"/>
	<path d="M148.497,181.18c-2.75,0-5.448,1.118-7.394,3.064s-3.064,4.644-3.064,7.394c0,2.75,1.118,5.448,3.064,7.393
		c1.946,1.945,4.644,3.065,7.394,3.065c2.76,0,5.448-1.119,7.393-3.065c1.956-1.944,3.065-4.643,3.065-7.393
		c0-2.75-1.109-5.448-3.065-7.394C153.945,182.299,151.247,181.18,148.497,181.18z"/>
	<path d="M244.635,97.968c-1.946,1.946-3.064,4.644-3.064,7.394c0,2.75,1.118,5.448,3.064,7.393
		c1.946,1.946,4.644,3.065,7.394,3.065c2.76,0,5.448-1.119,7.393-3.065c1.956-1.944,3.065-4.643,3.065-7.393
		c0-2.75-1.109-5.448-3.065-7.394c-1.944-1.946-4.632-3.064-7.393-3.064C249.278,94.904,246.58,96.022,244.635,97.968z"/>
	<path d="M252.029,181.18c-2.75,0-5.448,1.118-7.394,3.064s-3.064,4.644-3.064,7.394c0,2.75,1.118,5.448,3.064,7.393
		c1.946,1.945,4.644,3.065,7.394,3.065c2.76,0,5.448-1.119,7.393-3.065c1.956-1.944,3.065-4.643,3.065-7.393
		c0-2.75-1.109-5.448-3.065-7.394C257.477,182.299,254.779,181.18,252.029,181.18z"/>
	<path d="M293.937,63.456l-34.511-34.512c-1.962-1.961-4.621-3.063-7.395-3.063s-5.433,1.102-7.395,3.063l-34.511,34.512
		c-1.961,1.962-3.063,4.621-3.063,7.395v41.308h-13.595V70.851c0-2.774-1.102-5.433-3.063-7.395l-34.511-34.512
		c-1.962-1.961-4.621-3.063-7.395-3.063s-5.433,1.102-7.395,3.063l-34.511,34.512c-1.961,1.962-3.063,4.621-3.063,7.395v41.308
		H89.937V70.851c0-2.774-1.102-5.433-3.063-7.395L52.363,28.945c-1.962-1.961-4.621-3.063-7.395-3.063s-5.433,1.102-7.395,3.063
		L3.063,63.456C1.102,65.418,0,68.077,0,70.851V260.66c0,5.775,4.682,10.458,10.458,10.458h69.021
		c5.775,0,10.458-4.682,10.458-10.458v-58.564h13.595v58.564c0,5.775,4.682,10.458,10.458,10.458h69.021
		c5.775,0,10.458-4.682,10.458-10.458v-58.564h13.595v58.564c0,5.775,4.682,10.458,10.458,10.458h69.021
		c5.775,0,10.458-4.682,10.458-10.458V70.851C297,68.077,295.898,65.418,293.937,63.456z M69.021,250.203H20.915V75.182
		L44.968,51.13l24.053,24.053V250.203z M89.937,181.18v-48.106h13.595v48.106H89.937z M172.553,250.203h-48.106V75.182L148.5,51.13
		l24.053,24.053V250.203z M193.468,181.18v-48.106h13.595v48.106H193.468z M276.085,250.203h-48.106V75.182l24.053-24.053
		l24.053,24.053V250.203z"/>
</g>
<g>
</g>
<g>
</g>
<g>
</g>
<g>
</g>
<g>
</g>
<g>
</g>
<g>
</g>
<g>
</g>
<g>
</g>
<g>
</g>
<g>
</g>
<g>
</g>
<g>
</g>
<g>
</g>
<g>
</g>
</svg>
