<?xml version='1.0' encoding='utf-8'?>
<!DOCTYPE svg PUBLIC '-//W3C//DTD SVG 1.1//EN' 'http://www.w3.org/Graphics/SVG/1.1/DTD/svg11.dtd'>
<svg version="1.1" xmlns="http://www.w3.org/2000/svg" viewBox="0 0 512 512" xmlns:xlink="http://www.w3.org/1999/xlink" enable-background="new 0 0 512 512">
  <g>
    <path d="m495.8,274.8l-92.5-102.7c0.1-0.9 0.2-132.9 0.2-132.9 0-11.3-9.1-20.4-20.4-20.4-11.3,0-20.4,9.1-20.4,20.4v87.8l-91.5-101.5c-7.8-8.6-22.6-8.6-30.3,0l-224.7,249.3c-7.5,8.4-6.9,21.3 1.5,28.8 8.4,7.5 21.3,6.9 28.8-1.5l38.9-43.1v213.8c0,11.3 9.1,20.4 20.4,20.4h300.3c11.3,0 20.4-9.1 20.4-20.4v-213.8l38.8,43.1c4,4.5 9.6,6.7 15.2,6.7 4.9,0 9.7-1.7 13.7-5.2 8.4-7.5 9.1-20.4 1.6-28.8zm-267.6,177.6v-113.1h55.6v113.1h-55.6zm157.5-237.3v237.3h-61.1v-133.5c0-11.3-9.1-20.4-20.4-20.4h-96.4c-11.3,0-20.4,9.1-20.4,20.4v133.6h-61.1v-237.4c0-0.5 0-0.9-0.1-1.4l129.8-144 129.8,144.1c0,0.4-0.1,0.9-0.1,1.3z"/>
  </g>
</svg>
