<?xml version="1.0" encoding="utf-8"?>
<!-- Generator: Adobe Illustrator 19.0.0, SVG Export Plug-In . SVG Version: 6.00 Build 0)  -->
<svg version="1.1" id="Layer_1" xmlns="http://www.w3.org/2000/svg" xmlns:xlink="http://www.w3.org/1999/xlink" x="0px" y="0px"
	 viewBox="0 0 512 512" style="enable-background:new 0 0 512 512;" xml:space="preserve">
<g id="XMLID_1_">
	<path id="XMLID_6_" d="M490.7,149.3H21.3C9.5,149.3,0,139.8,0,128s9.5-21.3,21.3-21.3h469.5c11.8,0,21.3,9.5,21.3,21.3
		C512,139,502.5,149.3,490.7,149.3z M490.7,276.9H21.3C9.5,276.9,0,267.4,0,255.6s9.5-21.3,21.3-21.3h469.5
		c11.8,0,21.3,9.5,21.3,21.3S502.5,276.9,490.7,276.9z M490.7,405.3H21.3C9.5,405.3,0,395.8,0,384c0-11.8,9.5-21.3,21.3-21.3h469.5
		c11.8,0,21.3,9.5,21.3,21.3C512,395,502.5,405.3,490.7,405.3z"/>
</g>
</svg>
