<?xml version="1.0" encoding="iso-8859-1"?>
<!-- Generator: Adobe Illustrator 18.0.0, SVG Export Plug-In . SVG Version: 6.00 Build 0)  -->
<!DOCTYPE svg PUBLIC "-//W3C//DTD SVG 1.1//EN" "http://www.w3.org/Graphics/SVG/1.1/DTD/svg11.dtd">
<svg version="1.1" id="Capa_1" xmlns="http://www.w3.org/2000/svg" xmlns:xlink="http://www.w3.org/1999/xlink" x="0px" y="0px"
	 viewBox="0 0 236.91 236.91" style="enable-background:new 0 0 236.91 236.91;" xml:space="preserve">
<g>
	<path d="M202.842,90.894c-0.193-0.249-0.398-0.492-0.626-0.721c-0.229-0.228-0.472-0.433-0.72-0.626
		c-21.391-21.053-50.716-34.066-83.028-34.069l-0.013-0.001l-0.013,0.001C86.13,55.481,56.805,68.494,35.415,89.547
		c-0.249,0.193-0.492,0.397-0.72,0.626c-0.229,0.229-0.433,0.472-0.626,0.721C13.013,112.287,0,141.617,0,173.933
		c0,4.142,3.357,7.5,7.5,7.5h221.91c4.143,0,7.5-3.358,7.5-7.5C236.91,141.617,223.897,112.287,202.842,90.894z M148.661,166.433
		h-5.059c-1.445-4.851-4.255-9.111-7.984-12.341l2.214-4.49C143.105,153.81,146.985,159.689,148.661,166.433z M121.932,147.929
		c-1.138-0.151-2.297-0.236-3.477-0.236c-11.885,0-21.919,7.904-25.147,18.741H88.25c3.366-13.551,15.629-23.625,30.206-23.625
		c1.96,0,3.876,0.191,5.737,0.539L121.932,147.929z M158.882,166.433c-1.972-10.653-8.06-19.874-16.551-25.952l17.936-36.363
		c1.832-3.715,0.306-8.212-3.409-10.044c-3.713-1.833-8.211-0.307-10.044,3.409l-18.067,36.63
		c-3.291-0.851-6.739-1.304-10.292-1.304c-20.115,0-36.891,14.519-40.427,33.625H15.269c1.647-22.895,10.783-43.746,24.958-60.122
		l5.117,5.117c1.465,1.464,3.385,2.197,5.304,2.197s3.839-0.732,5.304-2.197c2.929-2.929,2.929-7.678,0-10.606l-5.118-5.118
		c16.375-14.174,37.227-23.308,60.122-24.956v8.541c0,4.142,3.357,7.5,7.5,7.5s7.5-3.358,7.5-7.5v-8.541
		c22.895,1.648,43.746,10.782,60.122,24.956l-5.118,5.118c-2.929,2.929-2.929,7.678,0,10.606c1.465,1.464,3.385,2.197,5.304,2.197
		s3.839-0.732,5.304-2.197l5.117-5.117c14.175,16.376,23.311,37.227,24.958,60.122H158.882z"/>
</g>
<g>
</g>
<g>
</g>
<g>
</g>
<g>
</g>
<g>
</g>
<g>
</g>
<g>
</g>
<g>
</g>
<g>
</g>
<g>
</g>
<g>
</g>
<g>
</g>
<g>
</g>
<g>
</g>
<g>
</g>
</svg>
