<?xml version="1.0" encoding="iso-8859-1"?>
<!-- Generator: Adobe Illustrator 16.0.0, SVG Export Plug-In . SVG Version: 6.00 Build 0)  -->
<!DOCTYPE svg PUBLIC "-//W3C//DTD SVG 1.1//EN" "http://www.w3.org/Graphics/SVG/1.1/DTD/svg11.dtd">
<svg version="1.1" id="Capa_1" xmlns="http://www.w3.org/2000/svg" xmlns:xlink="http://www.w3.org/1999/xlink" x="0px" y="0px"
	 width="96.496px" height="96.496px" viewBox="0 0 96.496 96.496" style="enable-background:new 0 0 96.496 96.496;"
	 xml:space="preserve">
<g>
	<g>
		<path d="M94.496,1.248H2c-1.104,0-2,0.896-2,2v26.305h96.496V3.248C96.496,2.144,95.602,1.248,94.496,1.248z"/>
		<path d="M0,66.943v26.305c0,1.104,0.896,2,2,2h92.496c1.104,0,2-0.896,2-2V66.943H0z"/>
		<path d="M2,52.99h18.118c1.104,0,2-0.896,2-2v-6.532c0-1.104-0.896-2-2-2H2c-1.104,0-2,0.896-2,2v6.532
			C0,52.096,0.895,52.99,2,52.99z"/>
		<path d="M94.496,42.458H78.389c-1.104,0-2,0.896-2,2v6.532c0,1.104,0.896,2,2,2h16.107c1.104,0,2-0.896,2-2v-6.532
			C96.496,43.353,95.602,42.458,94.496,42.458z"/>
		<path d="M58.311,52.99c1.104,0,2-0.896,2-2v-6.532c0-1.104-0.896-2-2-2H40.194c-1.104,0-2,0.896-2,2v6.532c0,1.104,0.896,2,2,2
			H58.311z"/>
	</g>
</g>
<g>
</g>
<g>
</g>
<g>
</g>
<g>
</g>
<g>
</g>
<g>
</g>
<g>
</g>
<g>
</g>
<g>
</g>
<g>
</g>
<g>
</g>
<g>
</g>
<g>
</g>
<g>
</g>
<g>
</g>
</svg>
