<?xml version='1.0' encoding='utf-8'?>
<!DOCTYPE svg PUBLIC '-//W3C//DTD SVG 1.1//EN' 'http://www.w3.org/Graphics/SVG/1.1/DTD/svg11.dtd'>
<svg version="1.1" xmlns="http://www.w3.org/2000/svg" viewBox="0 0 512 512" xmlns:xlink="http://www.w3.org/1999/xlink" enable-background="new 0 0 512 512">
  <g>
    <g>
      <path d="m104.5,82.9c0.6-0.3 64.3-30.6 147.8-31.1 0.3,0 7.1,0 7.4,0 83.5,0.5 147.1,30.8 148.2,31.3 38.1,17.3 52.3,32.3 52.3,55.3 0,28.6-21,52-46.8,52-25.8,0-46.8-23.3-46.8-52 0-2.8 0.3-5.8 0.8-9.2 1.7-10.4-4.9-20.4-15.1-23-44.8-11.4-72.6-17.2-100.2-17.2-27.9,0-53.2,5.9-93,17.4-9.9,2.9-16.1,12.7-14.5,22.8 0.5,3.4 0.8,6.4 0.8,9.2 0,28.6-21,52-46.8,52-25.8,0-46.8-23.3-46.8-52-1.42109e-14-22.9 14.2-37.9 52.7-55.5zm-5.9,148.3c47.5,0 86.2-40.2 87.6-90.1 55.5-15.3 76.4-15 139.6,0.5 1.6,49.7 40.3,89.5 87.6,89.5 48.3,0 87.6-41.6 87.6-92.8 0-57.8-53.4-82.1-75.7-92.2-3-1.4-73.4-35.2-167.8-35.2h-3c-94.4,0.1-164.9,33.9-167.3,35.1-22.8,10.4-76.2,34.7-76.2,92.4 0,51.2 39.3,92.8 87.6,92.8z"/>
      <path d="m447.8,460.2h-383.6v-53.7c1.42109e-14-30.8 24.4-56.6 56.7-59.8 50.5-5.1 87.7-35.5 99.2-79.4h71.7c11.5,43.8 48.7,74.3 99.2,79.4 32.3,3.3 56.7,29 56.7,59.8v53.7h0.1zm-52.6-154.2c-44.9-4.5-63.5-34.5-65.9-61-1-10.5-9.8-18.6-20.3-18.6h-106c-10.6,0-19.4,8.1-20.3,18.6-2.4,26.5-21,56.5-65.9,61-53.3,5.4-93.4,48.6-93.4,100.5v74.1c0,11.3 9.1,20.4 20.4,20.4h424.4c11.3,0 20.4-9.1 20.4-20.4v-74.1c1.13687e-13-51.9-40.2-95.1-93.4-100.5z"/>
    </g>
  </g>
</svg>
